<svg xmlns="http://www.w3.org/2000/svg" viewBox="0 0 512 512"><title>Artboard 137</title><g id="Medic"><path d="M94.79785,135.32044H417.20218A120.67942,120.67942,0,0,1,537.8816,255.99987v.00026A120.67944,120.67944,0,0,1,417.20217,376.67956H94.79783A120.67944,120.67944,0,0,1-25.8816,256.00012v-.00023A120.67945,120.67945,0,0,1,94.79785,135.32044Z" transform="translate(-106.03867 255.99996) rotate(-44.99999)" style="fill:#dfe5ff"/><path d="M447.98828,97.00423c-.42838,0-.86068.00635-1.29167.01921a42.66715,42.66715,0,0,0-41.37955,43.91634,35.12255,35.12255,0,0,1-10.33659,26.06657l-227.974,227.97444a34.75034,34.75034,0,0,1-23.92383,10.33676,42.66685,42.66685,0,0,0,1.24089,85.31494q.63085,0,1.26562-.01856l.041-.00114.12239-.00374.05469-.00163.11979-.0039.05664-.00179.11914-.00391.05925-.00212.11654-.0039.05859-.00212.11784-.00423.05924-.00228.11719-.00439.05859-.00228.11524-.0044.06185-.00244.09961-.00407.07617-.00309.0931-.00391.08463-.00358.084-.00374.08984-.00391.08594-.0039.08854-.00391.08529-.00391.08463-.00406.0905-.00424.08659-.00423.08658-.00423.08789-.00439.08659-.0044.07683-.00391.09635-.005.08333-.0044.0944-.005.082-.0044.067-.00358.11133-.00618.05078-.00293.12826-.00732.03971-.00228.138-.008.043-.0026.13281-.00782.04362-.00276.13737-.0083.03711-.00228.14388-.00912.02995-.00179.15169-.00976.026-.00179.1543-.01009.02214-.00147.16992-.01139.00651-.00049A120.23848,120.23848,0,0,0,210.7513,469.202l.00521-.00342c.04818-.03353.09831-.0682.14648-.10189l.01172-.00814.14193-.09912.01172-.00814c.04687-.03271.095-.0664.14128-.09912l.013-.009c.04817-.03385.0983-.06917.14713-.10319l.00326-.0026.151-.10629.00325-.00228c.23112-.16341.46029-.32649.69076-.4917l.00651-.00472c.04818-.03434.097-.06933.14453-.10384l.01563-.01123c.04492-.03206.09049-.0651.13541-.09733l.02018-.01448.12891-.09359.02669-.01921.1237-.08968.02865-.02067c.041-.03011.07942-.05778.12044-.08789L213,467.60173c.04036-.02914.07943-.05795.11979-.08708l.03125-.023c.03776-.028.07943-.05843.11784-.08643l.03255-.02392.11719-.08627.0332-.02408c.03776-.02816.07552-.056.11394-.08415l.0371-.02734c.03776-.02816.07422-.055.11263-.08318l.03581-.02669c.07617-.05631.14779-.10954.224-.16618l.0293-.022.11914-.08887.03776-.02832c.03646-.02718.07357-.05485.10937-.082l.043-.03222c.03516-.026.07227-.054.10677-.08008l.03907-.029c.0358-.02735.07291-.055.10872-.08236l.04167-.03141.10546-.07959.04428-.03369.10156-.07683.04687-.0358c.03516-.02637.06641-.05014.10091-.0765l.04818-.03662c.03125-.02409.06185-.04737.09375-.07146.01758-.01383.03646-.028.05469-.04182l.08984-.06869.058-.0446.07812-.06.06966-.05372.06315-.0485.08464-.06526.0625-.048.08529-.06624.06119-.04769.08659-.06706.0586-.04525.08854-.06933.05794-.04476.07747-.06071.06706-.05257.07422-.05811.07031-.05517.07357-.05762.07031-.0555.07292-.05746.071-.056.07357-.05826c.02148-.01726.04557-.03614.06771-.05339l.07812-.0625.0586-.04622c.028-.02263.05859-.04655.08659-.06918l.04882-.03857.09636-.077.04948-.03939.09505-.07617.05013-.04069c.0319-.02506.0638-.05094.095-.076l.04948-.03987.09636-.07748.04882-.03938.09636-.07813.04687-.03792c.03255-.02653.06446-.05241.09766-.07894l.04687-.03841c.03321-.0267.06576-.05339.09831-.08008l.04362-.03548.0944-.07666.04688-.03874c.03125-.02539.05989-.0485.09049-.07406l.05078-.04134c.0293-.02425.06055-.0498.0905-.07422l.05013-.041.08984-.07438.04818-.03955.095-.07829.03906-.03255.10287-.08545.041-.03369c.03516-.02946.06706-.05616.10287-.08545.01367-.01156.026-.02214.04036-.03353l.10287-.08594.03906-.03271c.03516-.02946.069-.05778.10482-.08741l.03776-.0319c.03515-.02962.069-.0581.10482-.08773l.03776-.03157c.0332-.02848.071-.06022.10481-.08854l.03711-.03125.10612-.08936.03451-.02946c.03515-.02978.07357-.06185.10872-.09179l.03321-.02816.10416-.08854.03711-.03142c.0332-.02864.06641-.05664.09961-.08528l.03906-.03337.097-.08252.041-.03532c.03386-.02864.06706-.05745.10092-.08626l.02864-.0249.11133-.09571.0306-.02636.11-.09457.03191-.02767c.03515-.03011.07226-.06266.10742-.09293l.0345-.02995.10742-.09294.03321-.02881c.0345-.03043.07226-.063.10677-.09326l.03385-.02946c.03646-.03173.07162-.06217.10742-.09391l.03256-.02865c.03645-.03157.07226-.063.10872-.09472l.0319-.028c.03581-.03173.07227-.0638.10873-.0957l.02994-.02637.112-.09847.026-.02278c.03842-.03451.07618-.06739.11459-.10189l.02148-.01872.11328-.10042.02409-.02116c.03711-.03337.07422-.06608.11133-.09945l.02083-.01855c.03776-.03337.07748-.06885.11459-.10222l.02343-.02067c.03711-.03352.07683-.06852.11394-.10205l.026-.02327.11328-.10189.02539-.02279c.03776-.03369.07552-.0677.11263-.1014l.02669-.02408c.03776-.03353.07487-.06739.112-.10108l.028-.0249.11067-.10026.02735-.02523c.03776-.03369.07422-.06706.11133-.10091l.02734-.0249c.03841-.03516.07292-.06657.112-.10173l.02539-.02376c.03711-.03386.07682-.06966.11393-.10368l.02214-.02067c.03906-.03532.07812-.07113.11653-.10645l.01953-.01806c.03972-.03679.08008-.07341.1198-.11019l.01367-.01286c.04166-.03809.08268-.07617.12435-.11426l.00846-.008c.041-.03809.08073-.075.1224-.11312l.01172-.01091.12239-.11344.01563-.01481.11914-.11084.01888-.01758.11849-.11035.01823-.01758c.03841-.03564.07877-.0734.11653-.10921l.02084-.01953c.03971-.03727.07747-.07227.11653-.10954l.02018-.01839c.03907-.03727.07683-.07276.11654-.11l.02018-.01888c.03907-.03743.07683-.07308.11654-.11051l.01888-.01774c.03971-.03744.07812-.0739.11719-.11149l.01823-.01709c.03971-.03744.07942-.07536.11914-.113l.01562-.0153c.041-.0389.07943-.07585.12044-.11475l.01368-.01318c.041-.0389.08268-.07877.123-.11784l.00912-.00846c.04362-.04167.08333-.08024.127-.12207l.00391-.00374.1276-.12256.00651-.00619c.04167-.04053.08333-.08073.12565-.12142l.00977-.00976c.041-.03923.08268-.07992.1237-.11931l.01237-.012.11979-.1167.01627-.01546.11849-.11589.01563-.0153.11914-.116.01562-.01529.11849-.11605.01628-.01628c.03906-.03825.07878-.07764.11784-.116l.01562-.01546c.03907-.03825.07943-.07829.11849-.1167l.01628-.01579.11784-.1167.015-.01513c.04037-.03988.08008-.0791.11979-.119l.01107-.01107c.04167-.04134.08268-.0817.1237-.123l.00651-.00635.12825-.12809h0l.09375-.09392c.13217-.13151.39909-.3986.79688-.79655l.39-.38981c.01758-.01758.03711-.0376.05534-.0555l.20248-.20247c.07812-.078.15885-.15918.24283-.24268l.79428-.7946c.03255-.03271.0625-.06266.09635-.096l.11328-.11345c.10677-.10693.21875-.21907.332-.3317l1.043-1.0433c.09635-.09635.19271-.193.29232-.29264l.10742-.10742.33789-.33773L233.916,448.751c.03515-.03549.07356-.07357.10937-.10938l.8724-.87239.01823-.01807.66145-.66162c.21941-.21957.44662-.44678.67448-.67416l.85026-.85091.03972-.03971.11979-.11979c.10742-.1071.2168-.2168.32552-.32552l.78385-.78386c.03581-.03532.07162-.07112.10677-.10661l.79623-.79589.0944-.09457,3.06315-3.063.05339-.05387,5.972-5.97168c.08464-.0848.17643-.17676.26172-.262l.8444-.84408.04623-.04639.07161-.07161c.12174-.12174.2513-.25114.3737-.3737l.70117-.70117c.06641-.06641.123-.12272.18945-.18929l.05274-.05273c.13346-.13347.25781-.25831.39257-.39258l3.05079-3.05078.06575-.06608,1.17318-1.17269c.05208-.05258.11-.11036.16276-.16309l.03516-.03483c44.25781-44.258,128.87174-128.87207,172.28125-172.28174l.06575-.06608c1.03841-1.03809,2.0612-2.061,3.05078-3.05078l.39258-.39258.05273-.05273.18946-.18929c.235-.2347.4694-.46924.70117-.70118l.3737-.37369.07161-.07162.04623-.04638c.28645-.28614.5625-.5625.8444-.84408l.26172-.262q3.19727-3.19726,5.972-5.97168l.05339-.05388q1.60839-1.60766,3.06315-3.063l.0944-.09456q.40429-.40381.79622-.7959l.10677-.10661c.26628-.26627.526-.5262.78386-.78385l.32552-.32552.11979-.11979.03971-.03972c.29167-.29183.571-.571.85026-.85091l.67448-.67415c.22526-.2251.44466-.44483.66146-.66162l.01823-.01807c.30013-.30029.58854-.58854.8724-.87239l.10937-.10938c.59375-.59391,1.153-1.15316,1.67188-1.67171l.33789-.33773c.03646-.03646.071-.07145.10742-.10742l.29232-.29265q.55761-.55711,1.043-1.04329l.332-.33171c.03776-.03743.07682-.07682.11328-.11344l.09635-.096q.43164-.43164.79427-.79459l.24284-.24268c.07031-.07031.13672-.13688.20248-.20247l.05533-.05551q.2129-.21215.39-.38981l.79687-.79655.09375-.09391.07031-.07031.028-.028.04167-.04215.02539-.02523c.01627-.01644.0306-.03109.04752-.04752l.01758-.01807.05143-.05176.02474-.02474.04623-.04622.02539-.02572.04362-.04459.028-.02767.043-.04379.02669-.02685.043-.04378.02735-.02767.043-.0433.02865-.02913.04037-.041.02994-.03043.03907-.04.0319-.03256.03776-.03824.0306-.03158.03971-.04036.03125-.03158c.01172-.012.02539-.02637.03776-.03841l.0319-.03272.03776-.03906.03125-.03206.03776-.03841.0319-.033.03711-.03776.03321-.034.0345-.03613.03451-.035.03645-.03808.03191-.03239.04036-.042.02734-.02832.04362-.04508.026-.02686.04492-.04638.02343-.02442.05339-.0555.015-.01546c.02149-.02262.043-.04476.06511-.06755l.00325-.00374.06706-.0695.00326-.00325c.04622-.04851.09244-.09685.13932-.14551l.00065-.00081c.02344-.02442.04427-.04672.06771-.071l.01237-.01318c.01758-.01823.03776-.03906.05469-.05729l.02408-.02491.04493-.04736.02408-.02539.04428-.04622.026-.02735.04166-.04394.0306-.03255.03581-.03793.03255-.03434.03711-.0389.03125-.03271.03516-.0376.0345-.03679.03321-.03532.0345-.036.0332-.0358.03386-.03565.03581-.03792.03125-.03385.03515-.03679.0332-.036.03516-.03743.03125-.03353.03776-.04.0293-.03158.03776-.0402.03125-.0332.0345-.0376.03321-.03516.03385-.03694.0332-.03548.03321-.03565.0345-.03727.03125-.03353.03646-.03922.02734-.02979.04037-.04346.02539-.02718.041-.04443.02539-.02783.04166-.04493.0267-.02913.03906-.042c.02083-.02311.03906-.04281.06055-.06592l.0052-.006c.02279-.02474.04427-.04769.06641-.07227l.03581-.0389.0306-.03353.0319-.0345.0358-.03906.02995-.03288.03581-.03939c.01107-.01188.02214-.0236.03255-.03564.01172-.01221.02279-.02474.03386-.03711l.0319-.03483.03515-.03874.0306-.033.03581-.03971.03125-.03451.0345-.03792.03321-.03646.03255-.036.0345-.03792.03126-.03484.03385-.03694.0332-.03727.0319-.03483.03386-.03809.0332-.03662.0319-.03532.03451-.03809.03125-.03515.03385-.03744.0319-.036.03451-.03825.02995-.03336.0358-.04.0306-.03434.03386-.03744.03255-.03678.0332-.03727.0306-.03418.03581-.04.02734-.0306.03841-.04313.026-.02963.03907-.04378.02539-.02864.03906-.04444.02995-.03369.03385-.03825.03841-.04313.0267-.03044c.01562-.01709.0319-.03613.04752-.05338l.01693-.0197.05664-.064.028-.03174.04493-.05143.03515-.03923.02995-.03418c.01042-.012.02279-.02669.03385-.03873l.0306-.03532.0319-.03613.03321-.03809.0319-.03613c.01042-.01254.02148-.02458.03255-.03711.01042-.01205.02149-.02523.03255-.03728l.0319-.03694.03191-.03646.03255-.03776.0306-.03451.03515-.04085.02735-.03125.03711-.0428.02864-.033.03451-.04021.0306-.035.03385-.03923.0293-.03385.03645-.04167.0267-.03157.03776-.04362.02669-.0306c.01172-.01416.02474-.029.03711-.04313l.02734-.0319.03646-.04248.02735-.0319.03645-.04249.028-.03255c.01237-.01416.02409-.02767.03581-.042l.028-.03206.03516-.04167.02864-.03353.03581-.04183.02734-.03206.03776-.044.026-.03043.03906-.04623.02409-.02832.04166-.04931.02149-.02474.04622-.05469.01693-.02.05143-.06022.01237-.01465c.01823-.02214.03516-.0415.05339-.0638l.01041-.01172c.06381-.07617.127-.151.19141-.22721l.00521-.00652c.01888-.02213.03841-.04541.05664-.0677l.01693-.02.04557-.0542.02213-.02637.04037-.0485.02409-.02865.03841-.04606.026-.03076.03646-.04411.026-.03125.03711-.04443.02539-.03028.03711-.04475.02669-.03207.03516-.04232.02864-.0345.03321-.03972.02995-.03629.0319-.03906.02994-.03565.03321-.04053.02734-.03336c.01237-.01432.02474-.02946.03646-.04395l.026-.03125c.01172-.01432.02409-.02994.03646-.04427l.02474-.03043.03776-.0459.02474-.03.03711-.04557.02474-.02979.03776-.0459.02474-.03043.03711-.04574.02344-.02881c.015-.01757.028-.03353.04231-.0511l.01953-.02425.043-.05306.01888-.02263.04362-.05355.01823-.023.04623-.05631.01562-.01921.04688-.0581.015-.01839.1224-.15153.01692-.02051.04558-.05664.015-.01872.04557-.05615.02539-.03239.03516-.04313.02995-.03711.02995-.03793.02994-.03727.0319-.03987.02735-.03386.03385-.04264.026-.03255.03516-.04379.026-.03239.03516-.04394.02539-.03223.03515-.04378.026-.033.0345-.04362.02539-.0319.03516-.04411.026-.033.03516-.04411.02409-.03092.03645-.04525.026-.033.0332-.042.02669-.03451.0332-.04215.02735-.03434.03385-.043.02539-.03256.03451-.04362.02669-.034.03255-.04151.02735-.035.03385-.04329.02539-.03239.03776-.04818.02149-.02767.04231-.0542.01693-.02181.05208-.06673.00717-.00879.05208-.06722.00846-.01107c.08073-.10416.16016-.20654.24089-.31087l.0039-.00537.05534-.07194.00912-.01156.04948-.06445.01692-.02181.04232-.055.01953-.02539.03972-.0516.01888-.02506.041-.05355.01758-.0223.04167-.05485.01757-.0236c.01433-.0179.02735-.03516.041-.05306l.02083-.028.03646-.0472.02409-.0319.03516-.04606.02278-.03011.03646-.048.02214-.02881c.01237-.01644.02474-.03337.03776-.04964l.02083-.028.03646-.04785.02279-.0306.0358-.047.02344-.03092.03451-.04574.02408-.03206.03386-.04525.02474-.03271.0332-.04427.02474-.033.03451-.04541.02408-.03223.03386-.04525.02409-.03255.0345-.04557.02344-.03174.03841-.05143.01888-.02507.043-.05762.015-.02034.04753-.06413.01042-.01334c.07812-.10547.15494-.20915.23307-.31478l.00521-.007.05208-.07064.01107-.0153c.015-.01986.0319-.043.04622-.06283l.01433-.0192c.01432-.01986.028-.03858.043-.05827l.01693-.02327c.01367-.01823.02735-.03711.04037-.05534l.01692-.023.04037-.05485.01888-.02588.03841-.05225.01888-.02636.03776-.05144.02018-.028c.01237-.0166.02539-.03418.03711-.05078l.02084-.028.03515-.04866.02344-.0319.0332-.04606.02279-.03125.03581-.04981.01953-.02637.03841-.05322.01888-.02588c.013-.01823.02279-.03222.03646-.05045l.02083-.02946.03581-.04883.02083-.02962.03581-.04932.02083-.0293.03646-.05029.02018-.028.03776-.05257.01758-.02522.041-.05713.015-.021.04362-.06055.013-.01806.043-.06022.01367-.01937.04492-.06283.01107-.01579c.09505-.1333.18815-.26481.28255-.39827l.002-.00277.05338-.07552.01042-.01465c.015-.02181.0293-.04215.04492-.064l.01367-.01937.04167-.05973.01432-.0197.04232-.06087.01237-.01774c.01432-.02018.02865-.0402.04232-.06038l.01562-.02165.04037-.05843.01432-.02019.04167-.0594.01432-.02051c.01237-.01839.02734-.03988.04036-.05827l.01563-.02262.03971-.05681.01563-.02295.03906-.05566.01693-.02474c.01432-.02018.02539-.036.03906-.05615l.01562-.0223c.01237-.01855.0267-.03841.03907-.057l.01627-.02327.03907-.05615.01627-.02409c.013-.01856.02474-.03548.03711-.054l.01823-.0262.03776-.05453.01693-.02441c.01107-.01693.026-.03809.03776-.05485l.01758-.02555.03711-.055.01692-.02409.03972-.05859.01432-.02051.04427-.06478.00977-.01432.05143-.07487.0026-.00407c.14714-.21566.29167-.42887.43685-.64518l.00781-.01156.04493-.06689.013-.01969.041-.061.01172-.01774c.015-.022.02865-.04183.043-.0638l.01042-.016.04231-.06267.01433-.02132.03906-.05924.01432-.02084c.013-.02018.026-.03906.03906-.0594l.01433-.02133.04036-.06038.01237-.0192c.01367-.02035.02669-.03923.03972-.05958l.01562-.02343.03711-.05616.01628-.02457.03841-.05762.01367-.021c.01367-.02034.028-.04215.041-.0625l.01172-.01708c.01433-.02214.02735-.042.04232-.064l.01107-.01693c.01432-.02213.02864-.04427.04362-.0664l.00846-.01335.04558-.06917.00781-.0114c.01432-.02213.02929-.04557.04427-.0677l.00911-.01449c.01433-.02214.02995-.0459.04492-.06787l.00782-.01253c.17773-.27214.35286-.54216.52864-.81543l.00131-.00212.05078-.07926.0026-.00456.04883-.07552.00586-.0096.04752-.07406.00261-.00456.04883-.076.0052-.0083c.015-.02392.03126-.04964.04688-.07357l.00521-.00813c.015-.02393.03125-.04883.04622-.07292l.00651-.01025.04492-.07113.00717-.01107c.015-.02392.02864-.04557.04427-.0695l.00846-.01383.04232-.06657.00976-.01611.04232-.06641.00912-.014.04492-.07194.00521-.00814c.015-.02392.0319-.0511.04752-.07519l.00391-.006.04883-.07845.00195-.00293.05013-.08041.0013-.00146q.30957-.49488.61393-.99072l.002-.00342.04817-.07878.00326-.00521c.01562-.02588.0306-.05078.04687-.07666l.00456-.00781c.01563-.026.0306-.05045.04688-.07633l.002-.00342c.01693-.02751.0319-.05225.04818-.07992l.00195-.00244.04883-.08024.0013-.00277c.01693-.02767.0319-.05192.04818-.07959l.0026-.00423.04753-.07829.00325-.00488.04623-.07682.00455-.00716.04688-.07813.002-.00276c.01628-.02767.0319-.05339.04883-.08122l.00065-.0013q.47559-.79005.93685-1.58431l.0013-.00245.04753-.08138.00065-.002.09635-.16585.00066-.0013.04817-.083v-.00033a120.56241,120.56241,0,0,0,16.06966-60.834v-.00114q-.002-.564-.01041-1.12761h0c-.00065-.03141-.00131-.06152-.00131-.09293v-.00684c-.00065-.02734-.0013-.05664-.0013-.08414l-.00065-.021-.0013-.06982-.00065-.0306-.00065-.06006-.00065-.03483-.00131-.05974-.00065-.03271-.00065-.05762-.00065-.03727-.0013-.05583-.00065-.03694-.0013-.05453-.00066-.03825-.0013-.05582-.00065-.03663-.0013-.05338-.00065-.04248-.0013-.0472-.00065-.0472-.00131-.04313-.0013-.04786-.00065-.04882-.0013-.04248-.0013-.04558-.00131-.05029-.00065-.03776c-.00065-.01888-.0013-.03646-.0013-.05518l-.0013-.0319c0-.01888-.00065-.043-.0013-.06185l-.00065-.02522-.002-.0695v-.00847l-.00781-.26448a42.66555,42.66555,0,0,0-42.62435-41.39014Z" style="fill:#ccd4ff"/><path d="M455.32031,56.67969a120.67844,120.67844,0,0,0-170.66666,0l-113.987,113.987L341.33333,341.33333l113.987-113.987A120.67844,120.67844,0,0,0,455.32031,56.67969Z" style="fill:#0784ff"/><path d="M482.043,186.70964a120.057,120.057,0,0,0,5.66146-19.10287q.56835-2.62305,1.01432-5.26432a121.35293,121.35293,0,0,0,1.84766-19.28255c.0039-.42969.07812-.85678.07682-1.28646-.00781-3.96615-.73828-7.89063-1.13412-11.84115a42.67606,42.67606,0,0,0-41.52083-32.92838c-.42838,0-.86068.00651-1.29167.01953a42.66629,42.66629,0,0,0-41.3789,43.91666,35.12731,35.12731,0,0,1-10.33724,26.06641l-113.987,113.987,60.33984,60.33984,1.00391-1.0039,85.82292-85.82292.0651-.0651,3.05078-3.05079.39323-.39322.05208-.05209.19011-.1901.70052-.70052.3737-.3737.07161-.07161.04688-.04688.84375-.84375.26172-.26172,5.97265-5.97265.05339-.05339,3.0625-3.0625.09505-.09505.79557-.79558.10677-.10677.78386-.78385.32552-.32552.11979-.11979.04036-.04037.85026-.85026.67448-.67448.66146-.66146.01823-.01822.8724-.8724.10937-.10938,1.67188-1.67187.33724-.33724.10807-.10807.29167-.29167q.55858-.5586,1.043-1.04427l.332-.33073c.03776-.03776.07682-.07682.11328-.11458l.09635-.09505q.43164-.43165.79427-.79558l.24349-.24219.20183-.20182.056-.056.38933-.38932.79687-.79688.09375-.09375a120.27915,120.27915,0,0,0,26.4375-39.78255C481.87109,187.28516,481.931,186.98958,482.043,186.70964Z" style="fill:#005eee"/><circle cx="341.33333" cy="341.33333" r="149.33333" style="fill:#ffea21"/><path d="M213.33333,320.05778h-.00911A21.33341,21.33341,0,0,0,192,341.36572a148.64063,148.64063,0,0,0,27.42057,86.23063l.00131.00163c.043.061.08528.12093.1289.182l.00065.00081c.043.061.08529.12028.12891.18115l.0013.00212c.02214.0306.04232.05924.06445.08968l.00065.00163c.02214.03043.04037.05583.06185.0861l.00521.00683.06055.08529.00456.0057c.01888.02669.03971.056.05924.08252l.00716.01009.0586.08187.00651.00911c.02213.03027.03776.05208.05924.08236l.00586.00814.06185.08528.00325.00489.06055.08382.00586.00814.06185.08512.00326.00472.06184.08529.00391.006c.02214.03027.043.05859.06445.08886h0l.06511.08952.0013.002.06445.08838.002.0026.0625.08561.00455.00619.0625.08528.00326.00521.06315.08594.00326.00423c.02148.03011.04166.057.0638.08708l.00195.00309.06185.08415.00586.00781.0638.08691.00065.00147.0638.08642.00391.00521.06445.08773.00131.0013.0625.08529.0052.00683c.02214.02995.04232.05762.06511.08757v.00049c.02213.03011.04166.05664.06445.08659l.00326.0052c.02278.02995.043.05762.0651.08773l.0013.00114.06446.08757.0026.00309c.04427.0599.08789.11833.13281.17838l.00065.00082c.04492.06006.08724.11719.13216.17708l.00261.00358.13281.17741.0013.00147c.04493.05989.08854.11767.13347.17741l.0013.00227c.08984.11947.179.237.26888.35629l.0013.00162c.0905.11914.17839.23519.26888.35417l.00326.00374c.04492.05941.08854.11622.13411.17562l.0013.00228.06771.08773v.00081l.06445.08334.00586.008.06576.08561.00065.00114.0651.08464.00456.00586.0625.08154.00651.00814.0612.07926.00781.00993.0625.08154.00521.00619c.01953.02588.04167.05436.06185.08024l.00716.00944.06315.08171.00456.00586.06185.07926.00846.0109.0625.08057.00521.00667.06055.07813.00976.012.06185.07992.00586.007c.01953.02571.04037.05241.06055.07812l.00911.01172c.02344.02946.03972.05029.0625.07975l.00586.00717.06185.07926.00781.00977c.02279.02945.03907.05029.0625.07975l.00586.008.0625.07959.00716.00879c.02279.0293.04167.05306.06511.08252l.00325.00423.06381.08106.00651.00846.06054.077.00977.01237.05859.07356.01172.01482c.02018.02555.04037.05175.0612.07731l.00651.00879.0625.07828.00781.00993c.02018.02556.04037.05143.0612.07715l.00846.01123c.02084.02555.04037.05046.06055.07617l.00912.01123c.02343.0293.04036.05013.06315.07943l.00586.00732c.02083.02556.04166.05193.06184.07748l.00912.01139c.02083.02556.03971.04916.0599.07471l.01106.01383.05729.07211.01237.01562.0612.07552.00781.01042.06185.0765.00847.01123c.02083.02539.041.05094.06185.07649l.00846.01091c.02083.02539.04036.05029.0612.07568l.00911.01156.0638.07943.00521.00634.06315.07764.00912.01123c.02018.02539.03971.04981.06055.0752l.00976.0122.0612.07536.00911.01123.06315.07829.00651.00781.06511.08008.00521.00651.06575.08073.00521.00618c.02018.0254.04232.05225.06315.07748l.00847.01074.0625.07634.00846.01074.0625.07617.00846.01009.0638.07861.00651.00749c.02019.02523.041.05046.06185.07568l.01042.01254.0625.07633.00781.00928.06185.07536.00977.012.06054.07357.01107.01351.0599.07259.01107.01351.0638.077.00651.008.06445.07747.00716.00912.06576.07926.00521.00619.0638.07715.00846.01041.06185.07422.01107.013.05924.07113.01237.0153.0612.07308.00977.0122c.02148.02507.041.049.06185.07406l.00976.01156.06511.07763.00585.00716.06316.0752.01041.01237.06185.07422.00977.01123.06119.07308.01107.01318c.02084.0249.043.05111.06446.07617l.00651.0083.06315.075.00976.01155c.02149.02491.041.04834.06185.07341l.01107.01269c.02083.02507.03906.04606.0599.071l.01237.015c.02148.0249.04166.04932.06315.07422l.00846.01009c.02083.0249.041.04867.0625.07373l.01042.01221.06185.07324.01106.01253c.02084.02491.03907.04623.06055.07113l.01172.01448.06315.07341.00911.01123c.02149.0249.04037.04753.06185.07227l.01107.01334c.02149.0249.04362.05046.06445.07536l.00717.00846.0638.07422.00976.01188c.02474.02832.041.048.06576.07634l.00651.00749c.02083.0249.043.05029.06445.07519l.00912.01107.0638.07373.00911.01123.0625.07227.01107.013.06315.07324.00977.01139.06054.06983.01368.01611.0625.07226.00976.01123.0612.07064.013.01481c.02083.02474.04232.049.0638.07357l.00847.00993.06119.07064.013.01546.06315.0721.00976.01123.0612.07048.013.01514.06445.07356.00782.00912.06315.0721.01172.01351.0625.07129.01106.013.0612.06982.013.01449.0638.07275.00912.01075.05989.06819.01563.01774c.01888.02116.04427.04981.0625.0708l.01042.01156.06185.07048.01237.01432c.02213.02441.04036.04557.06184.07015l.01237.014c.02214.02441.03972.04443.0612.06884l.013.015c.02214.02441.04167.0472.0638.07161l.00977.01139c.02214.02442.03971.0446.0612.06918l.01432.01579c.02149.02441.03971.04508.06185.06949l.01237.01416c.02148.02442.03776.04281.0599.06722l.015.01677.0612.069.013.01416.05794.06559.01758.01921.05924.06673.01433.01611.06054.06706.01433.01611.05989.06739.015.0166c.01888.02083.03906.043.05729.0638l.01823.02.05989.06689.01433.01547.05729.06412.01888.02067.05534.06169.02018.022.05338.05941.02149.0236.05859.06478.015.01644c.02148.02425.03515.03939.05729.06364l.01888.02083c.01888.02067.03971.04346.05794.06413l.01628.0179.05664.06234.01953.02132.0599.06543.01432.01628.05924.06478.01693.01839.0599.06592.015.0166.05729.0625.01953.02132.058.06348.01692.01855c.01628.01725.04037.04378.056.061l.02084.02229.05729.06283.01757.01888.056.0612.02019.02181.05794.06315.01758.01872c.01562.01725.03971.04345.056.06071l.02083.02262c.01563.01709.03906.0428.05534.05989l.02083.02247c.01563.01725.03841.042.05469.05908l.02083.02262.05729.06218.01823.01985c.01628.01709.03842.041.054.05811l.02344.02523c.01627.01709.03776.04052.05338.05761l.02279.02425.05339.05746.02213.02392.05794.06218.01758.01888.05794.062.01823.01969c.01953.02051.041.04362.0599.06413l.01628.01742c.01953.02051.03906.04134.05794.06185l.01953.02067.05729.06136.01953.02067.05534.05876.02149.02311c.01953.02034.03776.04.05664.06038l.01953.02083.05664.05974.02018.02164.05794.06153.01888.02.05664.05989.02019.02149.05729.06054.02018.02116c.01562.01693.03906.041.05469.058l.02213.0236c.01628.01692.04037.042.056.05892l.02149.02246c.01627.01692.03906.04085.05468.05778l.02214.02311.054.05664.02474.02588c.01562.01693.03515.03711.05143.054l.02474.026.05794.06087.01758.01872.05729.0594.02148.02263.05925.06185.01628.01725.05924.06169.01953.02034.06055.06331.01562.01612c.01953.02018.03907.0402.058.06038l.02148.02246.056.05795.02214.02262c.01562.01676.03906.04069.05533.05745l.02149.02263.05989.06185.01693.0179.05794.05973.02149.02181c.01562.01677.03906.04069.05534.05746l.02278.0236.05469.05648.02279.02343.05664.05843.02148.02165.05664.05827.02084.02181.05664.05794.02278.02295.054.05566.02344.02442.056.0568.02278.0236.05339.05436.02539.02572.05534.057.02213.022.056.05713.02279.02327.05534.05648.02344.02376.05208.05306.02734.02767.05274.05355.02539.02539.054.05485.02344.02425c.01693.01661.04167.04167.05794.05811l.02084.021.056.057.02278.02295c.01693.0166.04037.04037.05664.057l.02279.02262c.01628.0166.03841.03923.05534.05583l.02344.0236.05664.05729.02213.02181c.01628.0166.03776.03825.05469.05485l.02539.02572.05273.05273.026.02653c.01692.01644.03645.03613.05273.05257l.026.02621.05664.05615.02214.0223.05469.05485.02539.0249.05534.05534.02343.02311.05469.05452.02474.02491c.01693.01644.03906.03857.05534.055l.02409.02376.054.05355.026.02555.054.05372.02539.02522.05209.05176.028.02718.05339.0529.026.02572.05143.05078.02865.02832.05273.05159.02669.02653.05274.0516.02734.02669c.01628.01644.03776.03743.05469.05387l.02474.02409.05338.05257.0267.02653.05273.05111.028.02767.05143.05.028.02767c.01693.01627.03776.03645.054.05273l.026.02539.05339.05176.02669.0262.054.05257.02669.02556c.01627.01627.03646.03564.05338.05192l.0267.0262.054.05209.0267.02588.05338.05208.02669.02539c.01628.01628.03776.03678.05469.05306l.026.02506c.01628.01628.03451.0337.05143.04981l.0293.02848c.01693.01612.03776.036.054.05225l.026.02474.05339.05176.02734.02587c.01693.01612.03971.03809.056.05437l.02409.02278c.01692.01628.0358.03418.05208.0503l.03.02864.05143.04916.03.0288.04622.04427.03581.034.04753.04509.03255.03173.04817.04558.03256.03108.05078.04851.0306.02881.04948.04752.03125.02946.05013.04785.03125.02963.04817.04524.03321.03207.05078.04752.02995.02881.04947.04639.03256.03109.04883.04622.03255.0306.04752.04459.03451.03239.04948.04672.03125.02978.04948.04606.0319.03028.04948.04622.0332.03141c.01758.01595.03.028.04688.04395l.03385.03157.05143.04818.0306.02865.04883.04541.03255.03076.05143.04769.0306.02881c.01758.01595.03125.02913.04818.04492l.0345.03157.05013.04688.03125.0293.04948.04557.03256.0306.05013.04638.03255.03011.04752.04379.03451.03222.04818.0446.03515.03223.04492.0415.03646.034.04883.04476.0332.03092c.01368.01253.03321.0306.04753.04313l.03516.03255.05013.04623.0319.0293.04817.04394.03451.03206.05078.04623.03125.02881.04948.04492.0332.03092.05144.047.03125.02848c.01432.01254.03385.03077.04752.0433l.03581.03271.04818.04362.03515.03207.04558.04134.0371.03353.05209.04769.02929.02636.05144.04671.0319.0293c.01758.01563.03255.029.04948.04476l.03515.03158.043.0389.041.03678.04492.04085.03711.03337.04427.03971.03971.03614.04362.03889.03972.03614.04166.03727.041.03695.04753.0428.03515.03125.04753.04248.0358.03207.04753.043.03646.03255.04362.03873.04036.03614.04558.04069.03776.03353.04362.03873.04036.0363.04427.0389.03972.03548.04362.0389.03906.0345.05013.04428.0332.02946.04623.041.03906.03467.04232.0376.04231.03743.041.036.04167.03679.04817.04248.03516.03092.04557.0402.03972.03467.04557.04053.03776.033.04427.03906.04036.035.04623.04069.03776.03321c.01432.01237.0306.0262.04427.03857l.04036.035.04818.04216.03516.03076.04622.0402.03906.03451.04493.03874.04036.03531.04036.03484.04493.03906.04231.03711.041.03532.04232.03711.04232.03662.04492.03857.04036.03467.03972.03467.04622.03987.03906.03386.04492.03857.03972.03434.04492.03874.043.03678.04166.03581.04167.03581.04362.0376.041.035.04492.03841.03906.03353.04427.03825.04753.0402.03646.03158.04622.03922.04036.03467.04362.03727.04232.03565.03972.034.04557.03907.04167.035.04362.03743.03971.03353.04622.03907.03972.03385.04622.03906.03711.03125.04753.04053.04166.03532c.01433.012.02995.02474.04362.03678l.04167.035.04362.03694.04362.03662.04232.03549.04036.034.04622.03874.041.0345.04427.03744.04037.03353.04557.03825.04232.03548.04362.03646.04036.03385.04557.03776.043.03613.04232.03549.043.03548.04362.03629.043.03614.043.03564.041.03385.04623.03825.041.03418.04427.03711.041.03353.04557.03809.04167.03418.04427.03694.04232.03483.04362.036.04557.03776.041.03353.04428.03646.04231.03467.04623.03825.03971.03239.04622.03841c.015.01172.026.02116.04037.033l.04687.03825.03972.03271.04622.03776.04037.03321.04622.03727.04167.03418.04231.03467.04428.03613.04622.03743.03971.03272.04623.03743.04166.0337.04427.03613.043.03467.04427.036.04232.03418.04623.03792.041.03288.04362.03532.04427.03548.043.035.04362.03532.04362.035.043.03483.04752.03825.03972.03158.04752.03825.03972.03206.04817.03857.03907.03158.04687.03744.041.03271.04817.03874.03907.03125.04557.036.043.03483.04557.03613.041.03272.04687.03694.04167.03353.04622.03662.041.03272.04622.03662.04232.03336.04492.03581.043.03418.04232.0332.04622.03663.043.03385.04427.03532.04427.03483.04362.03418.04688.03678.041.03255.04558.036.04231.033.04753.0376.041.03207.04622.036.041.03255.05078.03955.03711.02913.04752.037.04232.0332.04753.03728.03971.03076.04687.03678.043.033.04688.037.04036.03109.04688.03629.04232.0332.04882.03744.03907.03043.04752.037.04167.03239.04818.03695.04036.03141.04557.035.04427.034.04688.0363.04036.03141.04818.03711.041.03141.05143.03939.03646.028.04817.03711.043.03272.04623.03564.04231.03239.04623.03516.04232.03239.04948.03776.03971.03043.04753.03614.041.03157c.015.0114.03646.02735.05078.03874l.03906.0293.04688.036.043.03239.04687.03564.04232.03206.04623.035.043.03255.05013.03792.03842.02946.04947.03695.04037.0306.04883.03711.04166.03108.04427.03321.04558.03434.04817.03646.04037.03043.04687.03532.04362.03223.04623.035.04427.03321.04167.03125.04752.03532.04753.03531.04232.03191.04427.033.04557.03385.04818.036.041.03076.04688.03467.04362.03223.04882.03646.04167.03076.04623.03434.043.0319.05144.03825.03841.02832.04752.03516.04362.03206.05078.0376.03842.02832.05143.03792.03841.02848.05273.03842.03907.02864c.015.01107.03125.02344.04687.03451l.04362.03222.04883.036.04167.03028.04687.03434.04362.0319.04753.035.04362.03158.04427.03239.04622.034c.01563.01091.0306.02214.04558.03321l.04557.033.043.03109.04817.035.04232.03109.04883.03532.03841.028.05208.03776.04232.03027.04883.03565.03971.02848.05144.03727.04036.0293.05078.03646.03906.02832.05144.03695.04231.03027.04948.03581.03711.02685.05469.0389.03516.02556.05729.04085.03125.02246.05859.04183.03711.02685.05469.0389.0345.02458.056.04.03907.02783.05208.03727.03646.02588.05534.03939.03841.02734.05338.0376.03646.026.05469.03874.03776.02669.05534.03907.03125.02213.05989.04264.03386.0236.05794.04118.0319.02263.0599.04183.03515.0249.056.03955.03386.02376.05794.04069.03581.0249.05729.04037.03125.02181.0599.04167.0371.026.05469.03857.03386.0236.05794.04037.03581.02506.05794.0402.02864.02.06381.04411.0306.02149.06054.04215.03255.02262.0586.04069.03906.02686.05339.037.03841.02636.05338.03711.04037.02784.05273.03645.03646.02523.056.03841.03841.02637.05469.0376.03516.02425.05729.03939.0358.02457.0573.03923.0332.02279.05859.04036.03776.02572.05534.03759.03711.02539.05469.03728.04167.02848.05078.03483.04036.02718.05274.03581.043.0293.04948.03385.041.02783.05273.03548.03907.02653.05468.03711.03451.02328.05859.03955.03711.02506.056.03776.03581.02426.05729.03841.03711.0249.056.03809.03581.0236c.01888.01318.03776.02555.05729.03873l.04036.027.05209.03483.041.02767.05274.03516.03841.02588.056.03711.03515.0236.058.03873.03645.02409.058.03858.03255.022.06055.0402.03515.02327.058.03858.03515.02327.05925.03907.03515.02327.0586.0389.0319.02116.06315.0415.02864.01921.06511.04264.02864.01921.06381.042.03515.023.0586.03857.03515.02312.0586.03841.03515.02295.0599.03922.03125.02067.0625.04069.03255.02149.06185.04036.03255.02116.06055.03939.03711.02441.05729.03695.0345.02262.06055.03923.0332.02148c.01954.01286.041.027.0612.03972l.03255.02132.0612.03955.03386.02181c.01953.01269.041.02685.06119.03955l.03256.021c.01953.0127.041.02686.06119.03956l.03646.02376.05729.03694.03581.02279.0599.03874.0319.02034.0625.04053.0319.02018.0625.0402.03646.02328.05729.03678.03581.023.06054.03858.02995.019.06576.042.028.01774.06576.04216.03255.02051.0625.03987.0319.02018.0625.03988.03385.02148.0612.03842.03321.02132.0625.03939.0319.02018.0625.03971.0319.02018.0638.04.0306.01937.0651.041.028.01741.067.04216.0306.0192.06446.04069.02864.01791.06706.04215.02734.01709.06836.04265.02735.01708.067.04183.03191.01986.06445.04.028.01774.06771.04183.02735.01725.06835.04232.0254.01595.07031.04346.02539.016.07031.04329.02409.01514.07226.0446.02019.01253.07617.047.01888.01155c.02409.01481.05078.03109.07422.0459l.0332.02035.0625.03841.0319.01969.06446.03923.0319.01985.0638.03907.0306.01871.06575.04021.0319.01969.06381.03874.03059.01871.06576.04.0306.01872.06641.04036.02669.01612c.01953.01221.04817.02946.06836.04166l.03515.02149.06055.03646.0332.02051.06381.03841.0319.01953.06445.03873.0306.01856.0651.03939.03516.02132.0612.03678.03385.02051.0625.03744.03581.02148.0612.03678.03125.01888.0651.0389.03711.02214.05859.03516.03646.02181.0612.03645.03451.02067.0625.03728.0319.0192.0638.03793.03711.022.06054.03613.0306.01823.06641.03939.03125.01839.06641.03939.02734.01611.06836.04069.03581.02083.06119.03614.03581.02116.0599.03548.04036.02376.05729.03369.03711.02165.0599.03516.03906.02311.0586.03434.0358.021.06055.03548.041.02376.05665.0332.03711.02149.06054.03532.03841.02262.0599.03467.0319.01855.0651.03809.03386.01969.0638.03711.0306.01758.06706.0389.0319.01823.0664.03857.02735.01563.07031.04085.02539.01433c.02409.014.04948.0288.07422.0428l.01823.01074c.02864.01644.04883.02784.07682.04427l.0319.01823.06576.03776.02995.01709.06836.03907.03125.0179.0664.03792.0293.01709.06836.0389.03385.01921.06315.03613.03386.01937.0651.03695.03125.01774.06706.03808.02864.01628.069.03922.03124.01758.06771.03841.02539.01449.07292.04118.02669.015.071.0402.026.01465.07292.04086.026.01481.07226.04069.02344.01318.07487.04183.02539.01432.07357.04118.02083.01172.07682.04313.02409.01335.07552.04215.01888.01042.07878.04394.02474.014.07357.04085.02278.01254.07683.04264.02083.01156.07812.04329.01823.01009.07943.04411.02474.01335c.02409.01367.04883.02734.07357.04085l.02539.01383.07292.04037.03059.01676.06836.0376.02865.01579.06966.03841.03125.01709.06771.03727.0293.01595.06966.03809.0319.01741.06771.03711.02669.01449.07292.03955.02734.0153.071.03841.02865.01563.07031.03841.03125.0166.06836.03711.028.0153.07161.0389.02669.01416.07227.03939.02669.01416.07292.03938.0293.01579.069.03744.02864.0153.07227.0389.02344.01253.07617.04085.02343.01253.07487.04.03256.01758.0664.03532.0319.01693.069.03694.028.01481.07161.03825.0267.01433.07226.03841.0306.01627.06966.03695.028.01481.07161.03776.0293.01579.071.03743.02539.01351.07422.03907.02735.01448.07291.03841.026.01351.07357.0389.02539.01335.07617.04.01758.00927.082.043.02019.01058.08007.04167.02084.01107.07812.04069.02539.01334.07552.03939.02019.01042.08072.04183.01954.01025.08073.042.01692.00879.08334.0433.01822.00927.082.04232.01888.00993.08138.042.02018.01042.08008.04118.02083.01074.08008.04118.01953.00993.08073.0415.02083.01091.07878.0402.026.01334.07487.03842.02279.01155.07812.03988.02344.01172.07747.03955.02344.01188.07682.03922.02474.0127.07683.0389.01953.00993.08138.04118.01953.00992c.02929.015.05208.02653.082.04135l.01693.00878.08268.04167.02539.0127.07487.03792.026.013.07552.03809.02409.01188.07747.0389.02214.01107.07878.03971.02343.01155.07748.03874.02278.01139.07943.03988.01758.00846.08268.04151.02214.0109.07942.03923.02474.01237.07617.03776.026.013.07487.03711.02734.01351.07487.03695.02344.01171.07682.03793.02865.014.07356.0363.02474.012.07748.03825.02018.00993.082.0402.01628.008.084.04118.02669.013.07487.03662.026.01269.07552.03679.02669.013.07617.03695.02083.01025.08073.03906.02409.01188.07683.03728.02669.01285.07552.03662.026.01254.07552.03646.026.01269.07617.03662.02735.01319.07487.036.02474.01188c.02539.0122.05208.02522.07812.03743l.02214.01074.07943.03809.02213.01058c.02995.01432.05078.02409.08008.03841l.02344.01107.07877.0376.02344.01123.07878.03743.02408.01172.07878.03711.02083.00993.08073.03841.02539.01188.07683.03678.02213.01042.08138.03825.01823.00879.08464.03988.01432.00683.08724.041.02213.01041.08073.03776.01888.009.084.03938.01693.00814.08593.04.01563.00716.08594.0402.02539.01189.07682.036.02279.01058.08072.03743.02149.01009.08138.03776.02018.00928.08138.03792.028.01286.07487.03467.02734.01253.07552.03483.02865.01319.07552.03483.02213.01025.07943.03662.02995.01351.07357.03385.02669.01221.07617.035.03125.01417.071.03238.03386.01563.06966.03157.03646.01661.06575.03011.03451.01562.07031.0319.02865.013.07552.03435.02213.00992.08008.0363.03255.01481.06966.03141.03321.015.07161.03206.02865.013.07487.03369.02669.01189.07617.03418.03386.01513.06966.03125.0319.01433.07161.03206.02995.01318.07487.03353.02409.01058.07878.03516.0319.01416.07161.0319.02995.013.07422.033.02864.01269.07487.03321.028.01237.07617.03336.0293.01319.07487.033.02409.01025c.02539.01156.054.02393.08007.03532l.02474.01091.08008.03515.01888.00814.084.03695.02539.01106.07942.03483.01823.00782.08594.03743.01953.00863.08464.03678.01758.00749.08593.03743.02344.0101.08138.03531.02018.00879.08334.03581.02408.01058.08138.03516.01563.00651.08789.03792.02279.00993c.02669.01123.05534.02376.08138.035l.02278.00944c.02995.01319.05078.022.08138.035l.026.01123.07877.03369.02149.00911.08268.03532.026.01123.07878.03337.02148.00927.08333.03549.01953.00813.08529.03614.01953.00846.08464.03565.02474.01057.08008.0337.02278.00976.08138.03434.026.01091.07813.03288.028.01155.07683.03239.02929.01221.07618.0319.028.01172.07617.03174.0306.01269.07552.03174.02214.00912.082.034.0306.01286.07422.03076.0306.01286.07356.03044.03646.01513.06836.02816.03516.01465.07031.02881.0345.01416.07162.02946.0293.012.07552.03109.0306.01237.07487.03092.026.01058.08008.03272.02408.00976.082.03353.01822.00749c.03125.01253.056.02295.08724.03532l.01758.00748.08854.03581.01237.005.0918.03711.02148.00879.08464.03434.01693.00651.08659.03515.02994.012.07683.03092.02278.00912.08269.0332.02408.00977.08269.033.01692.00683.08854.03532.01889.00765.08658.03451.02019.008.08593.03418.01758.00716.08919.03532.00912.00358c.0306.01237.06575.026.09635.03825l.013.00537.0918.03614.02018.008.08529.03386.02214.00846.084.0332.02018.008.08594.03369.02018.00781.08594.03386.01888.00732.08724.03418.02018.00781.08659.03369.01758.007.08789.03418.02148.00814.08529.0332.01953.00765.08529.03321.026.00976.08073.03141.02344.009.08268.03206.02344.00895.084.03223.01823.00716.08789.03353.02148.00846.08464.03223.02279.00879.084.03222.01628.00619.09179.03483.00847.00325.09635.03679.02083.008.08594.03239.02083.00814.08594.03239.01823.007.08854.03337.01888.00716.08724.03287.02344.00879.08333.03142.02149.008.08528.03207.02279.00846.08333.03141.02539.00944.082.03044.02408.00911.084.03125.01562.0057.08985.03353.026.0096.08073.02995.026.00976.08138.02995.02344.00879.08463.03109.01758.00651.08854.03271.02474.009.082.03027.02474.00895.08334.03044.02343.00879.08334.03027.02409.009.08333.03044.02083.00748.08659.03158.02018.00732.08659.03142.02344.00846.08464.03076.01822.00635.08985.03255.015.00554.09245.0332.01367.00488.09375.03369.01628.006.09114.03255.015.00537.09245.033.01627.0057.0918.03287.01432.00521.0918.03272.02539.00879.08268.02945.02279.008.08528.03027.01954.00684.08854.03141.015.00521c.03125.01123.06055.02148.09245.03255l.02409.00863.08268.02913.02669.00912.082.02881.02474.00879.08269.0288.026.00912.082.02881.02279.00781.08658.03011.013.00472.09506.03288.01106.0039.097.03353.01107.00391.09635.0332.01888.00651.08919.03076.01628.0057.09245.03174.01172.00407.09635.033.013.00439.09505.03256.01628.00569.0918.03125.01432.00472c.03125.01091.0625.02149.0944.03223l.01563.00537.09179.03109.01888.00651.08985.03043.01692.0057c.0319.01058.06055.02034.0918.03109l.01237.00407.09635.03255.01107.00374.09831.03288.00781.0026.10026.03369.01172.00391.09636.03223.015.00488.09375.03141.01432.00472.0944.03142.01368.00455.0944.03142.01692.00553.0918.03027.01953.00668.08854.029.02409.00814.08529.02815.01693.00537.09114.03012.02149.007.08854.029.01172.00374.097.0319.015.00456.09374.03076.01823.006c.03191.01025.058.01856.0892.029l.0345.01107.07357.02376.04036.01319.069.02213.03777.01221.07226.02344.02669.00862.08269.02637.0319.01042.07617.02441.03125.00993.07943.02539.02734.00879.08073.02572.03125.01009c.02734.00862.05143.01611.07812.0249l.03125.00976.07878.02507.026.00814.08333.02636.0254.00814.08463.0267.01888.00585.08984.02832.02735.00863.082.02555.03.00961.07877.02457.03321.01042.07682.02393.02734.00846.08269.02588.02408.00749.08659.02685.01563.00488.09375.02881.02018.00651.08919.02735.02149.00667.08789.027.02474.00765.08463.026.02474.00749c.02735.0083.05729.01774.08529.026l.02734.00846.08268.02523.02474.00749.08464.02588.0293.00895.08073.02441.02734.0083.08268.02507.02474.00732.08594.026.01758.00537.09245.02784.01888.00569.09114.02735.01563.00455.095.02865.01237.00374.09765.029.013.0039.097.029.01367.00407.097.02881.00781.00228.10286.03044.002.00065.10807.0319.00586.00179.10286.03027.01954.0057.09114.02685.01367.00375.097.02848.01367.00407.097.02832.01237.00358.097.02816.02409.00716.08463.02458.03256.00944.07877.02278.0306.00879.07878.02279.03515.00993.07683.02213.028.00814.08268.0236.0267.00765.084.02409.02474.007.08594.02457.02474.007.08528.02425.0293.0083.082.02328.02735.00765.08268.02344.03515.00992.07553.02133.03059.00846.08138.023.02279.00635.08854.02474.01953.00553.0905.02539.02539.007.08594.02393.02343.00651.0879.02441.02018.00553.09179.02539.01172.00342.09831.027.01953.00537.09115.02507.02148.00586.08985.02474.02018.00537.09114.02506.01563.00407.09635.02653.01042.0026.09961.02719.02083.00569.0905.02442.02474.00667.08659.02344.02278.006.08789.02376.0306.00814.08073.02181.028.00749.08333.0223.03125.00846.07943.02116.03776.01009.07356.01937.03907.01041.07356.01954.0267.007.08528.02247.02735.00716.08333.02213.028.00733.08529.02229.015.00407.09635.02507.01888.005.0918.02393.02734.00716.084.02181.0306.008.08073.021.03255.0083.07943.02051.03321.00863.07812.02018.03841.00977.07357.01888.04036.01041.071.01807.04232.0109.06966.01774.04231.01075.06967.01774.03841.00976.07487.01888.02669.00684.08529.02148.026.00651.08659.02181.02408.00619.08659.02165.03386.00846.07877.01969.028.007.08463.02116.02214.00553.09049.02247.01823.00455.09375.02312.02344.00585.08919.022.01758.00423.0944.02327.0267.00668.084.0205.03646.009.07617.01855.041.00993.07031.01725.04622.01107.06641.01628.04883.01171.0625.0153.05273.01254.06055.01465.04817.01155.06446.01546.04166.01009.07227.01726.0293.007.084.02.02409.00569.08659.02067.06055.01433.05013.01171.06445.01547.04948.01155.05013.01172.0638.01514.04167.00976.07031.01644.0625.01465.04818.01123.06054.01416.054.01253.05664.013.05534.013.05143.01188.06315.01448.03906.00912.07487.01709.03451.008.07682.01774.04558.01042.06835.01546.04037.00944.07161.01628.05079.01155.06184.014.04688.01058.06706.01514.03711.00846.07747.01742.02409.00537.08854.01985.03385.00765.07813.01758.03776.0083.07682.01709.02539.0057.0892.01986.00976.00211.10222.02263.028.00618.08464.01856.0319.00716.082.01806.02409.00521.08919.01937.0306.00684.08138.01774.04036.00879.07357.016.0319.007.082.01774.0319.00667.08073.01758.03972.00846.07356.01579.04753.01009.06576.01416.03906.0083.07617.01628.026.00553.08724.01856.028.00586.08528.01806.03255.007.082.01709.02474.00521.08789.01839.04231.009.071.01481.03971.0083.07422.01547.043.00879.071.01481.04037.00846.07356.01514.041.0083.07292.01513.03645.00733.07748.01595.03711.00765.07682.01562.03385.007.08008.01628.0306.00618.084.01709.026.005.08724.01774.03581.00716.07877.01579.0306.00618.08333.01661.03321.00667.08138.01627.02409.00472.08919.01775.03776.00732.07617.01514.03581.007.07942.01562.02995.00586.084.0166.02929.0057.08464.01644.03581.007.07877.01529.03386.00652.08007.01546.03972.00781.07422.01432.03711.007.07747.015.03841.00732.07617.01449.03321.00634.08138.01563.03646.00683.07747.01465.04232.008.07226.01367.03972.00749.07552.01416.03841.00716.07487.014.05273.00976.06185.01156.05143.0096.06316.01172.05468.01009.0599.01107.05273.00976.0625.0114.05209.0096.0625.01139.04752.00863.06771.01237.04492.00814.06966.01253.04232.00781.07292.01319.03581.00634.07942.01433.03516.00618.07943.01432.04036.00717.07422.01318.041.00732.07422.01319.041.00716.07357.013.03841.00667.07682.01367.03125.00538.08529.015.01823.00309.0957.01677.03125.00537.084.01465.02995.005.08464.01465.03385.00586.082.014.02474.00423.08985.01546.03841.00651.07617.01286.04167.00716.07422.01253.041.00684.07357.01253.041.00684.07487.01253.03711.00618.07813.013.04036.00667.07487.01253.04427.00733.071.01155.03971.00651.07682.0127.02735.00455.08789.01433.02539.00423.08984.01465.028.00439.08789.01432.02669.00424.08854.01432.02669.00423.0892.01432.02539.00407.08919.01433.03776.00586.07813.01253.03711.00569.07812.01237.04427.007.07162.0114.03711.00569.07942.01237.0293.00456.08659.01351.02018.00309.09635.015.01172.00179.10352.01595.02344.00358.09114.014.0599.00912.05469.0083.07552.01156.03971.006.069.01025.04818.00733.05208.00781.06445.0096.05339.008.06185.00927.06445.00961.05143.00748.054.00814.06315.00928.04167.006.07422.01091.03645.00537.08073.01172.02019.00309.095.01367.0332.00472.08333.01221.0306.00423.08529.01221.04883.007.0664.0096.05339.00749.06315.00895.05274.00748.06315.009.05273.00732.06445.00911.05144.00717.0638.00895.05078.007.06641.00927.04362.00586.07291.01009.04948.00684.06641.00911.07031.00961.04492.006.06771.00928.04948.00667.05078.00684.06706.009.03646.005.08007.01058.03646.00489.08008.01074.0332.00423.08334.01107.03841.005.07747.01026.04037.00521.07747.01025.02083.0026.09636.01254.01562.002.10026.013.02735.00342.08984.01155.02279.00293.0931.01189.04362.00553.07291.00928.05274.00667.0638.008.05208.00652.06511.00813.04687.00586.06966.00863.04818.006.06966.00846.03646.00456.08008.00977.04167.005.07487.00928.04231.005.07487.00911.04493.00537.07226.00863.043.00521.07357.00879.04752.00569.06966.00814.043.005.07422.00878.03906.00472.07813.00912.03255.00374.08529.00993.02734.00309.08985.01042.02343.0026.0931.01075.03516.00407.08268.00927.02865.00326.08789.00993.04948.00569.067.00749.0612.00684.056.00618.07617.00846.04037.00456.08268.00895.0345.00391.07618.0083.04231.00456.054.00586.0638.007.03581.00374.08268.009.01628.00163.10156.0109.02214.00228.0944.01009.0345.00358.084.00879.01367.00147.10351.0109.01368.00131.10351.01074.03451.00358.08333.00846.0293.00309.08724.009.04427.00439.07422.00749.03971.0039.07682.00782.05013.005.06836.00668.04427.00439.07292.00716.06576.00651.05143.005.06054.00586.058.00569.05664.00537.0612.00586.04948.00489.069.00651.0332.00309.08529.00814.013.0013.10481.00976.01693.00163.10091.00928.02669.0026.08985.0083.04167.00375.07812.00716.01758.00163.099.00895.0358.00325.08334.00749.00781.00065.10937.00977.03256.00293.08593.00765.02344.002.095.0083.01823.00163.09961.00863.0293.0026.08919.00765.02409.002.09375.008.0293.0026.08919.00749.01823.00146.09961.0083.0319.00277.08594.007.04687.00391.071.00586.05533.00439.06316.00521.0638.00521.054.00423.069.00553.04948.00391.07227.0057.04622.00374.06836.00521.05013.0039.06966.00537.04883.00391.0612.00456.05729.00439.08334.00635.0345.0026c.07422.00554.15365.01156.22787.01693l.00846.00065.09831.00716.02083.00163.084.006.03516.00261.09049.00651.02735.00195.11588.0083.00261.00016.09375.00652.02539.00179.07422.0052.04557.0031.06641.00455.05208.00358.05534.00375.0638.00423.03646.00244.08268.00554.041.00276.07747.00521.0293.00179c.10937.00716.2181.01432.32747.02116l.06055.00391.05729.00358.05273.00325.06771.00423.02149.00131.09635.00585.04623.00277.07356.00456.03125.00179.08789.00537.02084.00114.09765.0057.0319.00195.08789.005.015.001.10351.00586.0306.00179.0892.00505.0052.00032.11329.00635.02148.00114.09766.00537.0332.00179.08594.00456.02994.00163c.06967.00374.13868.00748.20834.01106l.054.00277.06511.00342.05143.0026.06771.00358.05013.00244.06966.00342.04037.00212.07877.00391.02018.001c.11459.00554.22331.01074.33789.01611l.03191.00147.08789.00407.00976.00049.22917.01025.01172.00065.10742.00472.026.00114.21354.00912.00847.00032.11067.00456.02995.00114.08984.00374.041.00163.07813.00309.04947.002.07032.00277.04687.00179.07292.00277.04492.00179.07487.00277.03711.0013.08268.00309.06446.00228.054.002c.19466.007.39453.01367.58919.01986l.01042.00032c.07487.00245.14583.00456.2207.00684l.01888.00065c.11.00326.22071.00651.33073.0096l.0293.00082.224.006.01628.00033.09114.00244.02865.00065.08984.00228.0306.00081c.22461.00553.45312.01058.67838.01514l.04428.00081.19791.00374.05209.001c.27083.00488.54947.00928.82031.0127l.01107.00016.01367.00016c.23567.00293.4733.00537.709.00733h.00781c.08008.00065.153.00114.23373.00162.28125.00179.55664.00277.83854.0031h.26823l.08463-.00017h.03581l.08008-.00016.03385-.00016.08138-.00016.03321-.00017.11263-.00032.00716-.00017.10352-.00032.03255-.00016.08138-.00049.03776-.00016.071-.00049.04427-.00017.08464-.00065.02474-.00016.11263-.00081.02409-.00017.08724-.00081.0358-.00033.07683-.00065.03906-.00032.08073-.00082.02995-.00032.2233-.00244.041-.00049.06836-.00081.04752-.00066.06967-.001.03906-.00049.08138-.00114.03125-.00049.11133-.00163.01562-.00016.0957-.00146.03581-.00065.07748-.00114.03645-.00065.07943-.00131.03451-.00065.09635-.00179.01432-.00016.112-.00212.0306-.00065.08138-.00146.03841-.00082.07683-.00162.03385-.00066.08789-.00179.02539-.00048.22591-.005.02735-.00065.084-.002.03711-.001.07422-.00179.04036-.001.07357-.00179.03971-.001.10743-.00277.02734-.00081.08268-.00212.04167-.00114.07031-.002.04362-.00114.071-.002.03972-.00114.08984-.0026.02084-.00065.11067-.00326.0293-.001.08333-.00244.03386-.00114.07942-.00244.03711-.00114.07943-.00261.0319-.001c.07487-.00245.15039-.00489.22526-.00749l.02474-.00082.08464-.00292.03776-.00131.07617-.00276.03581-.00131.08724-.00309.02408-.00081.11068-.00407.02669-.001.08334-.00325.041-.00147.07357-.00293.03711-.00146.07878-.00309.0332-.00131.10612-.00423h.00325l.11524-.00472.01758-.00081.0957-.00391.02734-.00114.084-.00358.0332-.00146.08594-.00375.026-.00114.22266-.00976.0332-.00163.07878-.00358.03906-.00179.07422-.00342.03646-.00163.082-.0039.0306-.00147.11-.00521.02018-.001.0892-.0044.03841-.002.07357-.00358.04166-.00212.06706-.00325.04492-.00244.08659-.0044.02083-.001.112-.00586.02539-.00131.08334-.00439.041-.00212.069-.00374.04492-.00244.07227-.00391.03516-.002.10351-.0057.00782-.00032.10937-.00619.03581-.00211.07356-.00407.041-.00228.07487-.0044.03581-.002.084-.00488.02669-.00163.11068-.00651.01888-.00114.09115-.00553.03776-.00228.07292-.0044.04036-.00244.07227-.00439.03971-.00244.09831-.00619.00846-.00049.11133-.007.0319-.00212.07877-.00505.03972-.00244.071-.00456.041-.00276.07552-.00488.03515-.00228.09961-.00668.01042-.00065.11-.00732.028-.002.08464-.00569.0332-.00228.07747-.00537.03581-.00244.08073-.00554.0306-.00211c.07422-.00521.14583-.01026.22005-.01563l.03386-.00228.07812-.00569.03581-.00261.07942-.00569.0306-.00228.09831-.00716.01237-.001.11263-.0083.02083-.00163.08855-.00651.0358-.00277.07292-.00553.043-.00326.07552-.00569.0306-.00244.10351-.008.00847-.00065.112-.00863.02278-.00195.08529-.00667.03581-.00277.07812-.00635.03321-.0026.08854-.00716.02083-.00163.11328-.00928.00716-.00049.10091-.0083.03451-.00293.07943-.00651.0306-.0026.084-.007.02995-.00244.22135-.01888.02149-.00179.08984-.00781.0306-.00261.07878-.00683.03645-.0031.07878-.007.0319-.00277.10482-.00928.00456-.00032.10872-.00977.03516-.00309.07487-.00684.04036-.00358.07162-.00651.03776-.00342.07747-.00716.03385-.00309.10808-.00993.01172-.00114.0983-.00911.02995-.00277.08268-.00781.0319-.0031.07683-.00716.03711-.00358.08984-.00862.01823-.00163.11133-.01074.01823-.00179.09179-.009.0306-.00309.07748-.00749.03971-.0039.07747-.00765.0293-.00293.09635-.0096.02149-.00212.09961-.00993.04232-.00439.06445-.00651.04687-.00472.06771-.00684.04037-.00423.07356-.00749.03581-.00374.10807-.01123.00912-.00082.10026-.01058.03255-.00341.07748-.00814.0358-.00374.07357-.00782.03906-.00423.0905-.0096.01562-.00163.10873-.01172.0306-.00325.08138-.00879.0319-.00358.08008-.00863.03125-.00342.08789-.00976.02213-.00244.10547-.01172.00586-.00065.10872-.012.0306-.00342.07878-.009.03841-.00423.071-.00814.03907-.00439.07421-.0083.03581-.00424.10938-.01253h0l.10677-.01237.0332-.00374.07617-.009.03776-.0044.07357-.00862.03516-.00407.0983-.01156.00912-.00114.11263-.01334.01628-.002.09244-.01107.0293-.00358.07943-.00944.03646-.00439.08138-.00993.02539-.00309.224-.02735.01433-.00179.09179-.01123.03256-.00423.08008-.00976.02994-.00391.09766-.01221.00911-.00114.22071-.02783.03776-.00472.07031-.009.03971-.00521.07292-.00928.03646-.00472.0931-.012.013-.00163.10937-.01432.02539-.00326.08594-.01123.0306-.00407.07552-.00992.03841-.00505.07357-.00976.03711-.00472.09505-.01286.01107-.00147.10742-.01432.0306-.00407.08008-.01074.03385-.00456.08008-.0109.02669-.00358.08724-.012.026-.00342.10808-.015.01237-.00163.0931-.01286.03841-.00537.07226-.00993.03907-.00537.069-.00976.03971-.00554.08008-.01123.028-.0039.10808-.0153.01888-.00261.08854-.01253.03255-.00472.07617-.0109.03646-.00521.08138-.01172.02409-.00342c.07747-.01107.14388-.02067.22135-.03206l.01888-.00277.0905-.01318.02669-.00391.08594-.0127.02539-.00358.09635-.01432.01172-.00163c.07748-.01155.14518-.02148.22266-.0332l.02474-.00374.08268-.01237.03125-.00472.082-.01237.028-.00407.10156-.01546.00521-.00082.10872-.0166.03385-.005.07422-.01155.03972-.006.06836-.01058.03906-.00586.07812-.01221.02865-.00439.10417-.01628.0039-.00065.10873-.01693.02278-.00358.0905-.01432.02148-.00326.09115-.01448.02018-.00326.09635-.0153.01433-.00228c.07747-.0122.14453-.02311.222-.03548l.02018-.00309.08985-.01465.02409-.0039.09114-.01465.01758-.00293c.11524-.01872.21875-.03565.334-.05469l.01757-.00293.0918-.01514.02409-.00407.0957-.01578.01107-.002c.11068-.01839.22461-.03743.33464-.056l.01953-.00325.09635-.01644.013-.00212c.11524-.01953.2194-.03743.33464-.05713l.01953-.00358.09114-.01562.02019-.00342.0957-.0166.015-.0026.22461-.03923h0l.11-.01937.01432-.00244.0944-.01676.02149-.00375.09505-.01692.01367-.00245.22331-.03987.01041-.002.09571-.01709.02669-.00488.08594-.01546.02278-.00407.09115-.0166.01888-.00342.2194-.0402.01693-.00309.09505-.01742.01823-.00342.08919-.01644.02409-.00439.2207-.041v-.00016l.10678-.01986.02213-.00406.08724-.01661.02344-.00439.10156-.019.00391-.00082c.07617-.01432.14843-.02815.22526-.04264l.01172-.00244.09244-.01758.03-.0057.08268-.016.02474-.00472.0918-.01774.01563-.00309c.07617-.01465.14388-.02767.22005-.04264l.01888-.00358.08919-.01742.02409-.00488.08529-.0166.02539-.00505c.07161-.014.14518-.02848.21614-.04264l.01628-.0031.09375-.01871.02018-.00407.08984-.01774.02149-.0044.0918-.01839.01822-.00358.21745-.04378.02018-.00407.08659-.01758.0293-.006.07878-.01611.02994-.006.08138-.0166.0267-.00553c.07617-.01546.13867-.02832.21419-.04395l.02344-.00488.08528-.01758.0267-.00553.08268-.01709.02539-.00521c.10872-.02279.2181-.04557.32747-.06852l.01433-.0031.09309-.01953.02214-.00472.09375-.01985.013-.00277c.07552-.01595.14714-.03125.22266-.04736l.0026-.00049.10156-.02181.02409-.00521.08724-.01872.02149-.00455.0957-.02084.01107-.00228c.07552-.01627.14192-.0306.21745-.0472l.02408-.00521.08529-.01855.02279-.00505.08724-.019.02278-.00488c.07032-.01563.14714-.03239.2181-.048l.002-.00048.10612-.0236.01563-.00342.08984-.02.02474-.00537.09115-.02035.015-.00342.22005-.04931.00717-.00163.10026-.02262.01823-.00424.0944-.02132.013-.00293.10026-.02278.01042-.00228c.07552-.01709.14257-.03255.21809-.04981l.01628-.00374.09245-.02132.02018-.00456.08724-.02018.02279-.00521c.10807-.0249.2207-.05111.32942-.07633l.00391-.001.10026-.02344.01888-.00439.10221-.02393.002-.00049c.11263-.02653.21875-.05159.33138-.07828l.015-.00359.09505-.02262.01563-.00374.10221-.02442.00456-.001.22135-.05323.00912-.00211.09765-.0236.01693-.00423c.02865-.00668.06576-.01579.09375-.02263l.01563-.00358.32877-.08024.00847-.00212.097-.02376.01823-.00439.09505-.02344.01237-.00309c.07487-.01856.14584-.036.22005-.05453l.002-.00032.10677-.02653.01041-.00277.09961-.02474.01042-.0026.10547-.02637.00325-.00081c.07487-.01872.14649-.03679.22136-.05567l.00651-.00163.10417-.02636.00716-.00179.10807-.02735v-.00016c.112-.02848.2194-.05583.33138-.08447l.013-.00326.0918-.02376.02213-.0057.09115-.02344.01432-.00358c.10677-.02767.2168-.05615.32357-.084l.01758-.00456.09375-.02441.01367-.00358c.11133-.0293.21615-.05664.32747-.0861l.00456-.00114.10547-.02783.00586-.00179.10742-.02849.002-.00032c.11133-.02963.22071-.05876.332-.08854l.0052-.00147.10026-.02685.01433-.00391.09961-.02686.00716-.002c.11133-.03011.21419-.05794.32552-.08822l.015-.00406.097-.02653.00846-.00228c.14844-.04053.29037-.07959.4388-.12045l.00586-.00179.10091-.028.01042-.00277c.11068-.03076.2155-.05989.32682-.091l.00717-.00212.097-.02718.01758-.00488c.14323-.0402.2845-.08024.42773-.12077l.01628-.00472.0944-.02685.01172-.00326c.18489-.05257.36393-.104.54818-.15739h0c.11067-.0319.2207-.064.33138-.096l.00065-.00016.10742-.03141.00456-.00147c.14713-.043.28971-.085.43685-.12842l.00585-.00162.10482-.03109.00326-.001c.33073-.09814.65755-.19645.98763-.29671l.0026-.001c.14649-.04459.28972-.08821.4362-.1333l.00456-.00146c.14648-.04492.28841-.089.43489-.13444l.00391-.0013.10482-.03256.0039-.0013.10547-.03288.00326-.001c.14583-.04574.28776-.09033.43359-.1364l.00521-.00179c.36458-.11523.72526-.23079,1.08919-.34879l.00065-.00033a149.53538,149.53538,0,0,0,69.00391-46.98551l.00325-.00375c.02344-.0288.04362-.05354.06771-.08235l.00261-.00326q.64159-.77783,1.27213-1.56266l.0013-.0013c.0931-.11654.1849-.231.278-.34782l.00325-.00391.06771-.08463.00065-.0013c.0931-.117.1849-.23194.27735-.34913l.0026-.00309.06511-.08219.0052-.00635c.069-.08789.13542-.172.20508-.26009l.00391-.00488.06055-.077.01106-.01449.0625-.0791.00261-.00358c.069-.08821.13346-.17041.20247-.25879l.00912-.01172.06185-.07942.00325-.00375c.069-.08837.13412-.172.20247-.26058l.00782-.00976.06185-.07975.0039-.00521.0625-.08089.00651-.00782c.04558-.05908.08854-.11507.13412-.17431l.0026-.00277c.01953-.02588.04167-.0542.06185-.08008l.01237-.01644.054-.07015.01237-.01562c.0651-.08529.13216-.173.19791-.2583l.00521-.00684c.01953-.02588.03841-.05029.0586-.07633l.01236-.01693c.01758-.0223.03777-.04932.05469-.07145l.01107-.014.05924-.0778.00521-.00732c.04558-.05941.08724-.11426.13282-.17383l.00781-.01058.05534-.07292.01367-.01806.05078-.06755.015-.01937.12891-.17041.00716-.00927.05729-.07667.01172-.015.05209-.06917.01432-.01953.05664-.07487.00651-.00879c.04232-.056.08594-.11426.1276-.17041l.01888-.02458c.01368-.01872.0293-.03939.04362-.0581l.02409-.03239.03972-.05371.02083-.02767c.01693-.02247.0306-.04069.04687-.06316l.01628-.021.12305-.16585.02343-.03109.03907-.05257.02474-.03369.03645-.04948.02474-.03337c.01693-.02262.0306-.04085.04688-.06331l.015-.0197.0599-.08105.02148-.029.04167-.057.01953-.026.043-.05859.02279-.03126.03971-.05387.02148-.02864.04558-.06283.028-.03809c.01432-.01888.03451-.04687.04818-.06575l.02279-.03076.0358-.04916.0293-.04.0332-.04492.02735-.03776.0358-.0485.02474-.03483c.01693-.02262.04037-.05453.05664-.07731l.02214-.0306.041-.056.02408-.03353.03711-.05046.02409-.034c.01432-.01888.02279-.03093.03646-.04981l.02669-.03711.03907-.05387.02018-.02783c.01953-.02653.03841-.05274.05729-.07927l.02474-.034.03841-.05306.02409-.034.03385-.04622.02995-.042.0293-.04036.03125-.04378.02864-.03972.0599-.08382.02474-.03385.0332-.04672.02669-.03743.03321-.04622.02734-.03858.02995-.04118c.01042-.0153.02018-.02848.03125-.04378l.0306-.04346.00976-.01334.08985-.12614.00976-.01384.03907-.055.02213-.03109.03516-.05.02278-.03125.03516-.0503.02734-.03825.03516-.04931.05143-.07292.028-.0402.02995-.04167.03125-.04476.02734-.03857.03255-.04639.02669-.03808.03125-.0446.02149-.02978c.026-.03793.05208-.075.07877-.1128l.01107-.016c.01367-.01888.02344-.0332.03646-.05208l.02214-.03141.03255-.04672.03-.04215.02994-.04264.02474-.03565.03451-.04932.01432-.021.07292-.105.02278-.03223.03646-.05224.02084-.02979.03515-.05111.02214-.03206.03711-.0529.02148-.03174.0332-.04785c.01889-.027.03516-.05045.05339-.07747l.03451-.04948.02343-.03418.03581-.05143.02018-.0293c.013-.019.02409-.03564.03776-.05469l.01823-.02685.03972-.058c.0026-.0039,0,.00017.0026-.00374l.14714-.21468.01106-.0153.04492-.06608.00847-.01237c.015-.0223.03-.04443.04557-.06673l.00781-.01172c.06511-.09554.13086-.19189.196-.2876l.01106-.01595.04362-.06413.00977-.01481.04557-.06738.002-.00228.20312-.30111.00456-.007c.10351-.15349.20377-.30274.30664-.45671l.002-.0026c.08594-.12826.168-.25179.25326-.38021l.0039-.00586.04558-.06885.00911-.01416a148.64426,148.64426,0,0,0,18.82552-40.51514,21.33341,21.33341,0,1,0-40.959-11.95068,106.68982,106.68982,0,0,1-209.082-29.90413,21.33293,21.33293,0,0,0-21.33334-21.32406Zm211.67123-96.9362a21.33355,21.33355,0,0,0-13.96094,37.4725,107.35382,107.35382,0,0,1,19.974,22.9611,21.33329,21.33329,0,1,0,35.83724-23.15446,150.10788,150.10788,0,0,0-27.90821-32.08415,21.246,21.246,0,0,0-13.942-5.195Z" style="fill:gold"/><path d="M186.05078,249.1224a21.33645,21.33645,0,0,0-19.416,12.471,192.40209,192.40209,0,0,0,.07226,159.63672,21.33316,21.33316,0,1,0,38.78971-17.77,148.33051,148.33051,0,0,1-5.9414-15.09977v-.00016q-.251-.75781-.49479-1.519l-.00391-.01205-.03125-.09831-.00325-.01155c-.01042-.03174-.02019-.06348-.0306-.09538l-.00586-.019c-.01042-.03174-.02019-.06267-.03-.0944l-.00391-.01123-.03125-.09945-.0026-.009q-.10254-.32154-.20248-.64421l-.00195-.00716c-.01042-.0332-.02148-.06787-.03125-.10091l-.00325-.00928c-.00912-.0306-.01888-.06217-.02865-.09293l-.00651-.02084c-.00977-.03076-.01888-.06071-.028-.09147l-.00586-.01872-.02735-.08838-.00781-.0262c-.00911-.02962-.01823-.05762-.02669-.08708l-.00716-.02229-.02735-.09-.00651-.02149c-.00976-.03059-.01888-.06-.028-.09082l-.00586-.0192c-.00912-.03076-.01823-.06022-.028-.091l-.00651-.0223c-.00911-.03076-.01888-.06153-.028-.09229l-.00261-.00749q-.0957-.31762-.19075-.63525l-.00716-.0236-.02279-.07682-.01172-.03809-.02148-.07422-.01237-.03987c-.00651-.02344-.01433-.04818-.02084-.07178l-.01237-.04053c-.00716-.02588-.015-.05029-.02213-.07617l-.01107-.036c-.00716-.026-.01432-.04915-.02213-.075l-.01107-.03972-.02214-.0747-.01107-.03695c-.00716-.02474-.015-.05257-.02278-.07731l-.00912-.03141-.02409-.08383-.00781-.02685-.02409-.083-.01041-.03564c-.00782-.02588-.01628-.05453-.02344-.08057l-.00065-.00065c-.02865-.10026-.05794-.20182-.08659-.30208l-.00977-.03239-.02018-.07162-.01172-.041c-.00716-.0236-.01367-.04574-.02018-.06934-.00521-.01839-.00781-.02848-.01367-.04687-.00586-.02247-.01237-.0446-.01888-.0669l-.013-.04573-.01888-.06609-.015-.05257-.01692-.06087-.01433-.05078-.01888-.06543-.01367-.05029-.01888-.06511-.01237-.04541c-.00651-.0236-.013-.04655-.02018-.07015l-.01237-.04508-.01953-.06934-.01172-.04232-.02018-.07242-.01107-.03907c-.00651-.0249-.01432-.05159-.02083-.07633l-.00651-.0223c-.02735-.09814-.054-.19417-.08073-.29248l-.00651-.022-.01953-.071-.01237-.04492-.01758-.06494-.01367-.0498c-.00586-.02246-.01172-.04314-.01823-.0656-.00456-.01855-.00847-.0319-.01368-.05045l-.01627-.06071c-.00521-.01856-.01042-.03711-.015-.05567-.00585-.01985-.01171-.04069-.01692-.06071l-.01433-.05436c-.00585-.01985-.01106-.0389-.01627-.05892l-.01563-.05713-.01627-.06-.015-.057c-.0052-.01872-.01041-.03695-.015-.05566-.00651-.02328-.01042-.03711-.01628-.06039l-.01562-.05713c-.00456-.01855-.01042-.04036-.01563-.05892l-.015-.05566-.015-.05615c-.00521-.02-.01107-.04265-.01693-.06267l-.01172-.04378-.01823-.0708c-.00391-.01383-.00781-.027-.01107-.041l-.03125-.11866c-.00651-.02327-.01237-.04524-.01823-.06852l-.015-.05534-.015-.05761-.01693-.06381-.01367-.05355-.01563-.05859-.015-.05713-.01433-.05631c-.00651-.02328-.01041-.03858-.01627-.06185l-.01432-.05485-.01563-.05925-.015-.0581-.01563-.0599-.01367-.05338-.01693-.06641-.01237-.04753-.01888-.07373-.01106-.0428-.01758-.06885-.013-.05078-.01758-.06966-.01172-.04476-.02083-.08252-.00847-.03369-.02539-.09847-.00456-.01888c-.00976-.03728-.02018-.0791-.02929-.11638l-.00847-.03336-.02148-.08366-.00977-.03906c-.00651-.028-.01237-.05062-.01953-.07862l-.01106-.04362-.01758-.07161-.013-.0516-.01563-.063-.01432-.056c-.00521-.02344-.00977-.03972-.01563-.06316-.0039-.01627-.00781-.03352-.01237-.05-.0052-.02328-.01106-.04509-.01692-.06853-.00326-.01513-.00782-.033-.01172-.04817l-.01758-.0708c-.00326-.01514-.00716-.02995-.01107-.04492l-.01758-.07227c-.0039-.01628-.00716-.03044-.01171-.04671-.00652-.02816-.01107-.04672-.01823-.07471l-.00912-.03939-.02083-.083-.00847-.03564c-.00651-.02816-.01432-.05892-.02083-.08691l-.00716-.02979c-.00846-.03288-.01432-.05876-.02214-.09163l-.00716-.02767c-.01823-.075-.03841-.15935-.056-.23438l-.00911-.03613c-.00651-.02816-.01237-.05355-.01953-.08171l-.00977-.04052c-.00521-.02344-.01237-.05339-.01823-.07683l-.00976-.04183-.01823-.077-.01042-.04492c-.00586-.02344-.01107-.04476-.01627-.0682l-.013-.05339c-.0052-.02343-.00976-.04248-.01562-.06608-.00391-.01627-.00781-.033-.01107-.04948l-.01627-.06787-.01172-.04964-.01628-.071-.01107-.04655c-.00586-.02344-.01106-.04736-.01627-.0708l-.01107-.0459c-.00521-.0236-.01172-.05176-.01758-.0752l-.00976-.04345-.01888-.08171-.00782-.03385-.02148-.09213-.00651-.02734c-.01693-.07519-.03646-.16081-.054-.236l-.00716-.03239-.01953-.0848-.01042-.0472-.01562-.06934-.01172-.05078c-.00521-.02343-.00977-.04443-.01563-.068-.00325-.01644-.00716-.033-.01106-.04948-.00521-.0236-.00977-.04525-.01563-.06885l-.01042-.04785-.01562-.07031-.01172-.05127-.01432-.06511-.01172-.05175-.015-.06771-.01106-.05078c-.00586-.0236-.01042-.04444-.01563-.068l-.01041-.04931-.015-.06641-.01172-.05452-.015-.06592-.01042-.04883-.01823-.082-.00781-.03613c-.01628-.07553-.03516-.16163-.05143-.23731l-.00456-.01937-.02148-.1001-.00651-.03027c-.00586-.02848-.01237-.05843-.01888-.08675l-.00847-.0402-.01692-.07943-.00912-.0428c-.00651-.02849-.00976-.04476-.01562-.07325l-.01042-.04687c-.00456-.0236-.01042-.0516-.01563-.0752l-.00911-.0415-.01628-.07829-.00846-.0389-.01758-.08463-.00716-.034-.01758-.08171-.00846-.03987-.01693-.0835-.00781-.0345-.01823-.089-.00586-.02946c-.00716-.03321-.01432-.06674-.02083-.09978l-.00391-.01936c-.00846-.03793-.01693-.07911-.02474-.117v-.0026c-.02474-.11866-.05013-.24317-.07422-.362l-.00586-.027-.01823-.0905-.00716-.03629-.01758-.08594-.00651-.03027c-.0052-.02865-.01171-.0599-.01757-.08838l-.00717-.03678-.01627-.08139-.00781-.03938-.01628-.0791-.00846-.04249c-.00521-.02848-.01042-.05371-.01628-.08235l-.00651-.03272c-.00521-.02848-.01172-.06087-.01758-.08951l-.00651-.03223-.01823-.09375-.00456-.02393-.01953-.097-.00455-.02507c-.0319-.16194-.0625-.31852-.0931-.48063l-.00651-.03157c-.00521-.02865-.01172-.06283-.01758-.09148l-.00521-.02718-.01693-.08968-.00716-.03792-.01562-.08317-.00782-.03906-.01432-.07732-.00846-.04492c-.00586-.02864-.00977-.05078-.015-.07942l-.00716-.03793c-.00455-.02392-.01107-.057-.015-.08089l-.00781-.04069c-.00521-.02865-.00977-.0529-.01563-.08154l-.00716-.03841-.015-.08236-.00717-.03711-.01692-.09391-.00456-.02507c-.00716-.03825-.01432-.07471-.02083-.11295l-.00131-.00619c-.02278-.12435-.04492-.244-.067-.36833l-.00131-.00748c-.00651-.03353-.01432-.07894-.02018-.11247l-.0039-.021c-.00586-.03336-.01237-.06624-.01823-.09961l-.00456-.02506-.01628-.09359-.00651-.03515-.015-.085-.00651-.03614-.015-.08463-.00652-.03695-.01562-.08691-.00521-.0319-.01562-.08692-.00651-.03727c-.00456-.02881-.00912-.05518-.01433-.084l-.00651-.036c-.00455-.0288-.01041-.06087-.01562-.08968l-.00521-.03043-.01888-.10873-.0013-.01009-.06315-.36686-.00326-.02148c-.00586-.0337-.01172-.06706-.01693-.10059l-.00455-.02718c-.00521-.02881-.01042-.06152-.01563-.09033l-.00651-.04-.01367-.08252-.00651-.03792-.01367-.0822-.00651-.03988c-.00521-.029-.00912-.05257-.01368-.08138-.00195-.01432-.00455-.028-.00716-.04215l-.01172-.07487-.00846-.04769-.01237-.0778-.00651-.04036c-.00521-.02881-.00911-.05436-.01367-.08317l-.00586-.03728c-.00586-.03369-.00912-.05387-.01432-.08756l-.00586-.03353-.015-.09375-.00455-.02669c-.026-.16374-.05144-.32422-.07748-.48812l-.0039-.02572-.015-.09684-.00456-.026-.01432-.09473-.00521-.03174-.01432-.09082-.00456-.03092-.01367-.08984-.00586-.03451c-.0039-.029-.00911-.06071-.01367-.08968l-.00456-.03027-.01367-.091-.00521-.03369c-.00456-.029-.00911-.05794-.013-.08691l-.00586-.03565c-.0039-.029-.00781-.05452-.01237-.08349l-.00586-.03972-.01432-.09342-.00326-.02507-.01692-.111-.0013-.0109-.03711-.24773v-.00341l-.01823-.12-.00131-.01188c-.0052-.03385-.01106-.07373-.01562-.10758l-.00456-.03093c-.00521-.03385-.00846-.056-.013-.09l-.00586-.03809c-.0039-.02913-.00716-.05176-.01172-.08073l-.00586-.0446c-.0039-.02425-.00846-.05582-.01171-.08007l-.00586-.03939-.01107-.08155-.00651-.04166-.01107-.08187-.00586-.03955-.01172-.08317-.00521-.03841-.01237-.08757-.00455-.034c-.00391-.029-.00912-.06233-.013-.09147L193.41862,362l-.01367-.09945-.00326-.02278c-.00586-.04362-.01107-.07813-.01692-.12191h0l-.01693-.12419-.0013-.01237-.015-.11-.0039-.02572-.013-.097-.00391-.02914-.01237-.09277-.00456-.03451-.01172-.08805-.00455-.03532-.01107-.0861-.00521-.04-.01107-.08187-.00521-.04c-.0039-.02913-.00716-.0524-.01041-.0817l-.00586-.043-.01042-.08187-.00521-.0376c-.00325-.02913-.00781-.06315-.01172-.09228l-.00325-.02816-.01367-.10417-.002-.01709c-.00455-.034-.00911-.07-.013-.104l-.00325-.02165c-.01563-.12662-.0306-.24446-.04623-.37109l-.0026-.01937-.01172-.09912-.00586-.04508-.00976-.07829-.00456-.04151-.01042-.08252-.00456-.03841c-.00325-.02929-.00651-.05485-.01041-.08414l-.00521-.043c-.0026-.02442-.00586-.05176-.00911-.076l-.00521-.04818c-.00391-.0293-.00586-.047-.00912-.07633l-.00586-.04607c-.0026-.02441-.00586-.05126-.00911-.07552l-.00521-.04622-.00911-.07975-.00521-.04281-.00912-.07894-.00521-.04411c-.00325-.02929-.00651-.05859-.01041-.08789l-.00326-.03255c-.00455-.03906-.00911-.07471-.013-.11377l-.0013-.00765c-.00912-.083-.01888-.16634-.028-.24951l-.0026-.01969-.01107-.10108-.00455-.03987-.00912-.08269-.00521-.04606-.00846-.07487-.00521-.05062-.00781-.071-.00586-.05387-.00781-.0695-.00521-.05013-.00847-.07487-.00455-.04769-.00847-.07634-.00455-.04508-.00847-.07682-.00521-.04834-.00846-.07878-.00391-.04069-.00976-.0918-.00326-.03076-.01171-.11556-.00066-.00537-.03841-.3763-.0013-.01611c-.00391-.03435-.00781-.07259-.01107-.10694l-.0026-.03c-.00326-.02945-.00651-.06038-.00912-.08984l-.00455-.04215-.00782-.083-.0039-.04085c-.00261-.02458-.00586-.05534-.00781-.07992l-.00456-.04655-.00781-.07666c-.00131-.01579-.00261-.03223-.00456-.04818-.00195-.02457-.00456-.0485-.00716-.07308-.00131-.016-.00261-.03352-.00456-.04931-.002-.02458-.00521-.05518-.00716-.07975l-.00456-.04216-.00716-.07959c-.0013-.01449-.0026-.03027-.00456-.04476l-.00716-.08252-.00391-.04-.00846-.09131-.00325-.03125c-.01172-.12793-.02214-.24658-.03386-.37451l-.0013-.01286c-.0026-.0345-.00651-.07519-.00977-.10953l-.0026-.03125-.00781-.09261-.00326-.035-.00781-.08707-.00326-.04265c-.0026-.02457-.0052-.05664-.00716-.08122l-.0039-.042-.00651-.0804c-.00131-.016-.00261-.03158-.00456-.04736-.00195-.02474-.00391-.05241-.00651-.077l-.00326-.04395-.00716-.08138-.00325-.04362-.00717-.08349-.00325-.03841c-.0026-.02963-.00391-.05225-.00651-.08171l-.00391-.04606c-.0026-.02962-.00455-.05306-.00651-.08268l-.00325-.03825c-.00261-.03451-.00586-.069-.00847-.10352l-.0013-.01985c-.00651-.07894-.01367-.16993-.02018-.24886l-.002-.0293-.00782-.09635-.0026-.03223-.00651-.09-.00326-.03987c-.00195-.02963-.0039-.05567-.00651-.08529l-.00325-.043c-.00195-.02962-.00326-.04736-.00586-.077l-.00391-.05175-.00521-.07308-.0039-.04981-.00521-.07422-.00391-.04915c-.002-.02458-.0039-.05241-.0052-.07715l-.00391-.04655c-.0013-.02474-.00326-.05062-.00521-.07536l-.00325-.04964-.00586-.078-.00326-.04508c-.0013-.02474-.00391-.05762-.00586-.08236l-.0026-.041-.00651-.09049-.002-.034c-.0026-.02978-.0052-.06885-.00716-.09847l-.00195-.02637-.00781-.12353-.002-.02848c-.0026-.03467-.00455-.06055-.00651-.09522l-.0026-.04085-.00586-.0835-.0026-.04345c-.002-.02491-.00391-.05486-.00521-.07959l-.00326-.04981-.00456-.07422-.00325-.04931c-.002-.02474-.00326-.05-.00456-.07487-.0013-.01726-.0026-.03483-.00325-.05209-.002-.0249-.00326-.04622-.00456-.071-.0013-.01725-.0026-.03516-.00326-.05257-.00195-.02474-.00325-.04623-.00455-.071l-.00326-.055c-.00195-.02474-.00325-.04573-.00456-.07047l-.00325-.05111c-.0013-.02979-.0026-.04655-.00456-.07634l-.0026-.04817-.00456-.07764-.0026-.04655c-.002-.02474-.00326-.05208-.00456-.07682l-.00326-.04834-.00651-.11345v-.008c-.0026-.03971-.0052-.08724-.00716-.127l-.00065-.00944c-.0026-.03972-.00456-.0752-.00651-.11491l-.002-.03825c-.002-.02979-.00326-.05257-.00456-.08236L192.222,349.55l-.00391-.07276c-.00065-.016-.0013-.03206-.00261-.048-.0013-.02995-.00195-.04639-.0039-.07617l-.00261-.05046-.0039-.07324-.00261-.05339-.0039-.07031-.00261-.05273-.0039-.075-.002-.04915-.0039-.07568-.00261-.048-.0039-.07926-.002-.04557-.0039-.07894-.002-.04639c-.002-.02978-.00326-.056-.00456-.08594l-.0013-.03759c-.002-.03484-.00326-.06983-.00521-.10466l-.00065-.01953-.01172-.25244-.00065-.02409c-.002-.03483-.00326-.06511-.00456-.09994l-.00195-.03727-.00326-.08724-.002-.04573c-.0013-.02491-.00261-.05209-.00326-.077l-.0026-.05208-.00261-.07178-.0026-.05534c-.00065-.0249-.0013-.04492-.0026-.06982l-.002-.05274-.00325-.0734-.002-.05176-.0026-.075-.00195-.04785c-.0013-.02507-.002-.05306-.00326-.078-.00065-.01611-.0013-.03271-.0013-.04866l-.00326-.07748-.00195-.04687-.0026-.07975-.002-.0459c-.00065-.02995-.00195-.05729-.0026-.08724l-.0013-.03695c-.0013-.02995-.00261-.06282-.00326-.09277l-.00195-.06022c-.0013-.03-.0026-.06641-.00326-.09652l-.0013-.0376-.00325-.08886-.00131-.03728c-.00065-.02994-.0013-.05843-.0026-.08838l-.0013-.04427c-.00065-.02506-.0013-.0524-.00261-.07747,0-.01742-.00065-.03776-.0013-.05518-.00065-.02506-.0013-.04508-.0026-.07015,0-.01741-.00065-.03678-.0013-.05419l-.002-.071-.00195-.0542c0-.02-.0013-.0511-.00195-.071l-.00131-.05534-.00195-.06738c-.00065-.02018-.0013-.03874-.0013-.05892l-.002-.06771c-.00065-.01888-.00131-.03662-.00131-.0555l-.00195-.07552c-.00065-.01612-.0013-.03141-.0013-.04753-.00065-.02506-.00195-.056-.00195-.08089l-.00131-.04541L192.04427,345l-.0013-.04622-.00195-.08578-.00066-.03971c-.0013-.04-.00195-.08366-.00325-.1237l-.00065-.04118-.00195-.08268c0-.01872-.00066-.0363-.00131-.05518,0-.02506-.00065-.04492-.0013-.07,0-.01742-.00065-.037-.0013-.05437,0-.02506-.00065-.04736-.0013-.07242l-.00065-.05127c-.00066-.02-.00131-.05371-.00131-.07373l-.0013-.05453-.0013-.06917c0-.01888-.00065-.04-.0013-.05892l-.00065-.06445-.00131-.0625c0-.02-.00065-.04232-.0013-.06234l-.00065-.06087-.0013-.06674-.00065-.05843-.0013-.06917c0-.01888,0-.03548-.00066-.05436l-.00065-.06885-.0013-.05941-.00065-.07177-.00065-.04981-.0013-.09652v-.02913l-.002-.12679v-.00553c0-.03516-.00065-.08236-.0013-.11752v-.04915l-.0013-.07813v-.04948c-.00065-.02506-.00065-.04882-.00065-.07389-.00065-.01888-.00065-.03743-.00065-.05648l-.00065-.07047c0-.01758,0-.03662-.00065-.0542v-.06982c-.00065-.019-.00065-.03874-.00065-.05762,0-.02523,0-.04378-.00066-.06885v-.05762l-.00065-.0664v-.0599c0-.02506,0-.04-.00065-.0651v-.12565c-.00065-.01888-.00065-.04021-.00065-.05925v-.12581c0-.02507,0-.04476-.00065-.06983v-.306h0v-.30843c.00065-.02506.00065-.0402.00065-.06526V340.833c0-.02018,0-.04183.00065-.062v-.12565c.00065-.02019.00065-.04118.00065-.06137v-.06266c.00065-.02018.00065-.04411.00065-.06413v-.05843c.00066-.02.00066-.0485.00066-.06868,0-.01888,0-.03874.00065-.05762v-.06738c.00065-.01888.00065-.03906.00065-.05794l.00065-.06592c0-.02018,0-.04.00065-.06039,0-.02506,0-.043.00065-.06819v-.05485c.00065-.02523.00065-.04786.00065-.07292.00065-.01758.00065-.03613.00065-.05371.00065-.02507.00065-.0568.0013-.08187v-.04183l.002-.12614V339.519c0-.04524.00065-.07828.0013-.12353l.00065-.03793.00065-.08333.0013-.05648.00065-.0708.00066-.05306c.00065-.02.00065-.05127.0013-.07129l.00065-.05371.0013-.07373.00065-.05241.0013-.07015.00131-.05729.00065-.06852.0013-.05583.0013-.07047.00065-.05436.002-.07178.00065-.05339c.00065-.02018.0013-.05013.0013-.07015l.0013-.05615.0013-.0708.00131-.05339.00195-.07714.00065-.0472.00195-.08936.0013-.03613c.00066-.04.00131-.08334.00261-.12337l.00065-.03777c.00065-.03011.0013-.05794.0026-.08805l.00066-.0415.002-.084.0013-.04606.00195-.07829c.00065-.01611.00131-.03564.00131-.05175.00065-.02.00195-.05127.00195-.07129l.00195-.05648.00195-.07c0-.01741.00066-.03467.00131-.05224l.00195-.07357.00195-.05192.002-.07373.0013-.051c.00065-.02506.0013-.0485.0026-.07356,0-.01742.00065-.03467.0013-.05209l.00261-.07747.0013-.04476c.00065-.02995.0013-.05192.0026-.08187l.00131-.04492.0026-.07861c.00065-.016.0013-.03109.0013-.0472.00131-.02491.002-.05062.00261-.07569l.00195-.0498c.0026-.07992.00586-.16879.00846-.24854l.00131-.02588.00325-.09961.0013-.03548.00326-.08887.00195-.04052c.00065-.02491.002-.061.00326-.08594l.0013-.04069.00325-.08285.002-.04508.0026-.08024.00195-.04671.00326-.07536.00195-.05127.00326-.07568.00195-.048c.0013-.0249.00261-.054.00326-.07894l.00195-.04443c.0013-.02979.0026-.05339.00325-.08317l.002-.04216.0039-.084.002-.0402.0039-.09636.00131-.02734.00586-.12093v-.00309c.00325-.07959.00781-.17383.01171-.25358l.00131-.02116c.0013-.03483.00325-.06983.00455-.10466l.00131-.027c.00195-.02978.00325-.06673.0052-.09651l.00131-.03825c.00195-.02979.00325-.05615.00455-.0861l.002-.0402c.0013-.02979.0026-.05469.00455-.08448l.002-.04362c.0013-.0249.00325-.05615.0039-.08089l.00261-.04378.0039-.07975.00261-.047c.0013-.0249.0026-.05257.00455-.07748l.002-.04736.00456-.07487c.00065-.01725.0013-.03418.0026-.05143.0013-.0249.0026-.05371.00456-.07845l.00195-.04216.00521-.08821.00195-.03662.00586-.10319.00065-.01921c.00261-.03971.00521-.08171.00716-.12142v-.00423c.00521-.08431.01042-.16862.015-.25293l.0013-.01563c.002-.03466.00391-.07454.00651-.10921l.0013-.02767.00586-.09391.00261-.04.0052-.08642.00261-.03777c.0013-.02978.00325-.0555.00521-.08512l.0026-.04069.00521-.08675.0026-.03744.00521-.08447.00261-.04215c.00195-.02491.0039-.0612.00585-.08594l.00261-.03678.00521-.08757.0026-.0376.00651-.09212.00195-.03125.00586-.09163.00261-.03467.00781-.11247.00065-.00895c.00847-.12858.01693-.24951.02669-.37809l.00131-.01839c.00195-.03467.0052-.07308.00716-.10759l.00195-.01872c.00195-.0345.00456-.0708.00716-.10547l.002-.02636.00716-.097.0026-.03222.00651-.09.00326-.03792.00651-.09082.00195-.02865.00781-.09554.002-.03255.00716-.09229.0026-.03125c.00261-.02962.00521-.063.00716-.09261l.00261-.034.00781-.09619.00195-.02555.00847-.1071.0013-.01725.041-.50277.00131-.0109.00911-.11312.00195-.02181c.00261-.0345.00521-.06543.00847-.09993l.0026-.03028.00847-.09765.00195-.02426c.0026-.03434.00521-.06331.00846-.09781l.00261-.03028.00846-.09586.0026-.028c.002-.02946.00521-.06624.00782-.0957l.0026-.0293c.00326-.03434.00651-.06722.00912-.10156l.00195-.02018c.00325-.03451.00651-.06885.00911-.10319l.002-.02295c.0039-.03939.00651-.07162.01041-.11084l.0013-.01156c.00326-.03939.00717-.08317.01107-.12256v-.00179c.01563-.16715.03125-.33675.04688-.50374l.0013-.01156.01107-.1123.0013-.01791.01042-.10514.0026-.02458c.0026-.02946.00651-.07226.00977-.10172l.00195-.02018.00976-.104.00261-.02278.01042-.1045.00195-.01725.01042-.10888.00195-.01612.01107-.112.0013-.01139c.00325-.03434.00781-.08057.01172-.11491l.00065-.01058c.026-.25.05273-.50358.07943-.75325v-.00228c.0039-.03907.00911-.08187.013-.12093l.0013-.01254c.0039-.03418.00781-.07373.01172-.10807l.0026-.02523.01107-.09879.0026-.026.01107-.09815.0026-.02474.01172-.10189.002-.02148.01172-.10254.0026-.02148.01237-.10987.0013-.01139c.0332-.29313.06641-.583.10156-.87565l.00065-.00277.01433-.12174.00065-.00586.01432-.118.0013-.00977c.00456-.0389.00847-.07324.01368-.11214l.00195-.0166.01237-.10466.00325-.02278.01237-.10482.002-.01563c.0052-.0389.00911-.07194.01432-.11084l.0013-.01269c.00521-.04379.00912-.07455.015-.11833v-.00325c.05729-.45769.11718-.91765.179-1.37387l.00065-.00423.01563-.11946.0013-.00619.01628-.12v-.00342a148.28464,148.28464,0,0,1,10.82487-38.84245l.00065-.001.04687-.10824.00261-.00537.04687-.10889.00065-.001c.11328-.26041.22656-.51936.34115-.779l.00456-.01106.043-.09652.00977-.02279.03841-.08642.01107-.02474c.01107-.02588.026-.05974.03776-.08561l.01042-.02295c.013-.03011.02343-.05372.03711-.084l.01367-.03043.0345-.07764.01433-.03158c.01106-.02588.02213-.0498.03385-.07568l.01562-.03532.03256-.0734.01562-.03435.0319-.07145.01823-.0402.03-.06673.01823-.04037.0319-.07063.01693-.03777.04427-.09814.00325-.00732.04232-.09261.03125-.06934.02344-.05257.02995-.06462.01757-.03987c.01042-.02181.02084-.0446.0306-.06657l.01823-.04037.03321-.07259.01367-.03011.01107-.02474a21.34345,21.34345,0,0,0-19.39-30.206Z" style="fill:#ccd4ff"/><path d="M341.33333,149.33333A191.38594,191.38594,0,0,0,237.46354,179.834a21.33325,21.33325,0,1,0,23.097,35.87419,148.411,148.411,0,0,1,61.22461-22.44027l.00195-.00016c.112-.01465.22331-.02913.33529-.04346l.0013-.00016c.27734-.03564.56054-.07129.83854-.1053l.00651-.00082c.112-.01383.2207-.02685.33268-.04036l.00456-.00065c.112-.01351.22005-.02637.332-.03956l.00781-.001c.166-.01953.334-.03906.50065-.05811l.00391-.00049.32943-.03743.01367-.00147c.10742-.012.21419-.02392.32161-.0358l.02214-.00228c.112-.01237.21224-.02328.32487-.03548l.00651-.00065c.11263-.012.22135-.02377.334-.03565l.00326-.00032.16341-.01709.00651-.00065c.10807-.01124.22331-.02312.33138-.03418l.01042-.00114c.10807-.01091.22005-.02214.32812-.03288l.015-.00163c.10807-.01074.2194-.02165.32747-.03223l.01107-.00113.15755-.01514.00846-.00082.16732-.016h0l.16211-.01546.013-.00114q.16212-.01513.32422-.03011l.02149-.00195c.10807-.00977.21484-.01953.32291-.02914l.01628-.00146c.10807-.0096.21745-.01921.32617-.02865l.01693-.00162.153-.01319.00977-.00081.16341-.01384.01367-.0013.14974-.01253.01888-.00163c.10352-.00862.21745-.01806.321-.02637l.02409-.00195c.10873-.00879.21159-.01709.31966-.02571l.02474-.00179.15039-.01189.00847-.00065c.05469-.00423.10612-.0083.16081-.01237l.02213-.00179.14323-.0109.02083-.00147c.05469-.00423.10417-.00781.15886-.01188l.01953-.00146.13672-.01009.03385-.00245.15625-.01139.00651-.00049.14909-.01074.03255-.00228q.15626-.011.3125-.02181l.03321-.00228.14257-.0096.01368-.001.1595-.01074.02344-.00146.14062-.00928.02409-.00147c.054-.00358.10352-.00683.1582-.01025l.01823-.00114.14193-.00911.02865-.00179c.10351-.00651.21224-.01319.3164-.01954l.0293-.00179c.05469-.00325.10156-.00618.15625-.00927l.0013-.00017.15821-.00927.03059-.00179.14519-.0083.013-.00082c.05469-.00309.10416-.006.15885-.00895l.02735-.00163.13346-.00732.0319-.00179.1556-.00847.01953-.001.13932-.00749.0319-.00163.15756-.0083.00455-.00016.1517-.00765.0345-.00179c.10482-.00521.20833-.01042.31315-.01546l.03321-.00147.13606-.00651.02344-.00114.1543-.00716.03385-.00146.13281-.006.026-.00113.15755-.007.02278-.001.13607-.00586.03516-.00146.1556-.00651.00781-.00033.14844-.006.03646-.0013.14192-.0057.01563-.00065.15429-.00586.03777-.00147.12434-.00455.03646-.00131.14909-.00537.03906-.00146.1198-.00407.04231-.00147.15039-.005.02865-.001.12891-.00423.03971-.0013.1556-.00488h.00325l.1517-.00472.03906-.00114.14062-.00407.015-.00049.153-.00423.04232-.00114.127-.00342.0293-.00081.15495-.00391.0319-.00081.12891-.00326.03645-.00081.1517-.00358.0306-.00065.12825-.00293.041-.00082.15364-.00325.00977-.00017.14518-.00293.04232-.00081.13021-.00244.02734-.00049.15039-.00277.043-.00065.12435-.00211.03255-.00049.153-.00244.03516-.00049.125-.00179.041-.00049.153-.00212.02083-.00016.13542-.00163.04167-.00048.15364-.00163.00782-.00016.14583-.00147.04557-.00033.13021-.00113.02539-.00017.153-.00114.03841-.00032.127-.00082.03516-.00016.15039-.00081.04036-.00017.11979-.00048.04232-.00017.15169-.00032.0293-.00016.12761-.00017h.04492L341.33333,192h.1237l.05078.00016h.07552l.05339.00017.071.00016.056.00016.07031.00016.0573.00017.0664.00032.0586.00016.0677.00033.0573.00033.06836.00048.05533.00033.07032.00033.05664.00048.06836.00049.056.00033.07031.00065.05534.00049.07161.00048.05274.00049.07226.00082.054.00049.08008.00081.043.00049.11915.0013.0052.00016.12761.00147.02148.00032.09961.0013.056.00082.071.001.05274.00082.071.001.056.001.06966.001.0586.001.0638.00113.06185.001.0638.00114.05925.001.067.0013.05729.001.06836.0013.05664.00114.06641.0013.0599.0013.06445.0013.05924.00131.06771.0013.056.0013.07031.00163.05534.00114.06836.00162.056.00131.123.00293.01758.00048.10742.00277.03971.001.084.00211.05794.00163.06315.00163.06576.00179.06054.00163.05925.00162.0651.002.0612.00179.06315.00179.0612.00179.06055.00179.06575.00211.05925.00179.0625.002.06315.002.0625.00212.05729.00179.06836.00228.05013.00162.07487.00261.05273.00179.06771.00228.06706.00244.05664.00195.082.00293.04167.00147.12174.00455.04948.00179.07552.00293.056.00212.06576.00244.06315.0026.0612.00228.0651.00261.056.00228.06836.00276.05729.00244.06576.00277.05729.00228.06445.00277.0625.00276.06055.00261.06185.0026.06119.00277.06706.00293.056.00244.06576.00309.05924.00261.06576.00309.05794.0026.06185.00293.0625.00293.07422.00358.04752.00228.123.006.04036.002.08269.00407.054.00276.069.00358.06315.0031.05925.00309.06445.00342.0586.00293.06575.00358.05729.00293.06706.00358.05338.00293.07292.0039.05078.00277.06771.00374.05859.00326.06446.00358.05924.00342.06315.00358.058.00325.0677.00391.05274.00309.06966.00407.05143.00293.07227.0044.04752.00276.07487.0044.02474.00163.18881.01139.02734.00179.07552.00472.04622.00277.069.00439.05533.00358.06967.0044.05078.00325.07356.00472.04948.00326.07357.00472.04753.00309.07356.00488.05079.00342.07291.00488.04492.00309.07943.00538.043.00293.07682.0052.04558.0031.07617.00537.04622.00325.07813.00537.03515.00261.08724.00618.0306.00212.0905.00651.01432.001c.14518.01057.291.02132.4362.03222l.02929.00212.07618.00586.04882.00358.07422.00569.04623.00359.07552.00585.04492.00359.08073.00618.04036.00309.07813.00619.04427.00358.07943.00635.03971.00309.08268.00667.03451.00293.08919.00716.02865.00228.08919.00733.03581.00309.08724.00716.02474.00212.09635.008.00911.00081c.15039.0127.29948.0254.44987.03842l.01693.00162.09635.0083.02344.00212.08724.00765.03711.00342.08333.00732.03516.00326.08659.00765.03516.00325.08463.00765.03516.00326.08528.00781.03581.00325.08594.008.0319.00293.08919.0083.02995.00277.09245.00879.02083.00195.09961.00944.01432.0013c.22722.02165.45769.04411.68425.0669l.013.0013.097.0096.02409.00244.0905.00928.0306.00293.09179.00944.0267.00277.08984.00927.0319.00326.09115.00944.02539.0026.09375.00977.02539.0026.09831.01042.01432.00147.10351.01106.01563.00163c.34831.03695.694.075,1.04167.11442l.0052.00065.10417.01188.01758.002.10351.01188.01237.00146.10678.01237.01106.0013.10547.01221.01367.00163.10352.012.01628.002.10677.01253.0013.00016c.42513.0503.85221.10287,1.27669.15674l.01432.00179.10352.01318.01367.00179.10612.01368.00912.00114.11067.01416.00391.00048.112.01465.00651.00082q.69628.09081,1.39062.188l.00521.00066.11133.01562.00521.00081.11068.01563.00716.001q.80957.11473,1.61588.23779l.00912.0013.10872.01677.00651.001.10938.01693.00716.001a148.46239,148.46239,0,0,1,17.12565,3.68945l.00391.00114.10612.02946.00585.00179.10743.03.00195.00048.10742.03012.00651.00179q.55176.155,1.10156.3138l.002.00049.10807.03141.0026.00065.09766.02848.01953.00554.0918.02669.01953.0057.0918.027.02018.00586.0918.02686.02018.006.08984.02621.02539.00748.08724.02572.02214.00651.09049.02669.01953.00586.09375.02767.00912.00293c.17838.05273.35807.10645.53581.16l.00781.00228.09179.02767.02149.00651.08529.02572.02734.0083.08464.02555.02734.00847.08008.02425.0345.01041.07943.02426.03255.00992.07617.02328.03972.012.07226.0223.041.01253.07031.02165.04362.01335.07031.02164.043.01335.06706.02067.05273.01644.06055.01872.05859.01806.05339.01661.054.01692.14062.04395.0293.00895.0638.02018.04883.01514.05729.0179.05794.01839.05664.01774.054.01709.06055.01921.05468.01709.0573.01823.05533.01758.056.01758.05925.01888.05664.01822.05143.01628.06185.01986.054.01709.05794.01872.05664.01806.054.01725.0638.02051.05013.01628.05989.019.05339.01742.0651.02116.04688.01513q.17089.05518.34049.11052l.026.00862.08789.02881.02864.00928.08594.028.03255.01075.08008.02636.03711.01221.07422.02458.043.01416.07291.02409.03581.01188.08008.02653.03515.01172.07748.02571.03581.01188.07552.02523.041.01367.08138.02718.026.00879.097.03239.01628.0057c.23112.07731.45963.15478.6901.23323l.00846.0031c.03646.0122.07162.02441.10808.03678l.0052.00179.10743.03678.01172.00407.10546.03614.00717.0026.10546.03646.01172.00374.10808.03744.00325.00114.112.03873.00326.00131q6.6123,2.29248,12.93164,5.1761a21.33349,21.33349,0,0,0,17.63411-38.85237,190.52692,190.52692,0,0,0-79.50456-17.19418Z" style="fill:#005eee"/><path d="M265.90861,416.75806A106.66667,106.66667,0,0,1,416.75806,265.90861Z" style="fill:#fffc74"/><rect x="202.98068" y="311.16344" width="276.7053" height="60.33978" rx="30.16986" ry="30.16986" transform="translate(-141.3849 341.33333) rotate(-45)" style="fill:gold"/><rect x="49.98713" y="268.49678" width="156.02575" height="60.33978" rx="30.16986" ry="30.16986" transform="translate(-173.69889 177.98711) rotate(-45)" style="fill:#eff2ff"/><rect x="220.65379" y="97.83011" width="156.02575" height="60.33978" rx="30.16986" ry="30.16986" transform="translate(-3.03223 248.67956) rotate(-45)" style="fill:#5cbeff"/><rect x="272.15702" y="76.49678" width="95.68597" height="60.33978" rx="30.16986" ry="30.16986" transform="translate(18.30111 257.51611) rotate(-45)" style="fill:#bce4ff"/></g></svg>